<?xml version="1.0" encoding="utf-8"?>
<!-- Generator: Adobe Illustrator 16.0.0, SVG Export Plug-In . SVG Version: 6.00 Build 0)  -->
<!DOCTYPE svg PUBLIC "-//W3C//DTD SVG 1.1//EN" "http://www.w3.org/Graphics/SVG/1.1/DTD/svg11.dtd">
<svg version="1.1" xmlns="http://www.w3.org/2000/svg" xmlns:xlink="http://www.w3.org/1999/xlink" x="0px" y="0px"
	 width="611.969px" height="1186px" viewBox="0 0 611.969 1186" enable-background="new 0 0 611.969 1186" xml:space="preserve">
<g id="background">
</g>
<g id="background_shapes" display="none">
</g>
<g id="Layer_11">
</g>
<g id="graphic_pieces" display="none">
</g>
<g id="background_text">
	
		<text transform="matrix(1 0 0 1 395.8882 312.8662)" opacity="0.9" fill="#FFFFFF" font-family="'AlfredoHeavyHollow-Italic'" font-size="113">—&gt;</text>
	
		<text transform="matrix(-0.6998 0.7143 -0.7143 -0.6998 167.8921 546.1182)" opacity="0.9" fill="#FFFFFF" font-family="'AlfredoHeavyHollow-Italic'" font-size="113">—&gt;</text>
	
		<text transform="matrix(0.7768 0.6297 -0.6297 0.7768 395.9023 686.2588)" opacity="0.9" fill="#FFFFFF" font-family="'AlfredoHeavyHollow-Italic'" font-size="113">—&gt;</text>
</g>
<g id="discussion_details">
	<g>
		<text transform="matrix(1 0 0 1 296.9849 355.8291)"><tspan x="0" y="0" fill="#209BC6" font-family="'AGaramondPro-Regular'" font-size="19">summary of cores ideas</tspan><tspan x="0" y="22.8" fill="#209BC6" font-family="'AGaramondPro-Regular'" font-size="19">in </tspan><tspan x="19.607" y="22.8" fill="#209BC6" font-family="'AGaramondPro-Bold'" font-size="19">all about love</tspan><tspan x="124.258" y="22.8" fill="#209BC6" font-family="'AGaramondPro-Regular'" font-size="19"> to be </tspan><tspan x="0" y="45.6" fill="#209BC6" font-family="'AGaramondPro-Regular'" font-size="19">shared and used as a guide in</tspan><tspan x="0" y="68.4" fill="#209BC6" font-family="'AGaramondPro-Regular'" font-size="19">reading and discussing.</tspan></text>
	</g>
	<g>
		<text transform="matrix(1 0 0 1 34.9849 524.9346)"><tspan x="0" y="0" fill="#209BC6" font-family="'AGaramondPro-Regular'" font-size="19">some of the questions that came to</tspan><tspan x="0" y="22.8" fill="#209BC6" font-family="'AGaramondPro-Regular'" font-size="19">us while reading the book. please feel</tspan><tspan x="0" y="45.6" fill="#209BC6" font-family="'AGaramondPro-Regular'" font-size="19">free to use these guiding questions to </tspan><tspan x="0" y="68.399" fill="#209BC6" font-family="'AGaramondPro-Regular'" font-size="19">spark conversations about the book.</tspan></text>
	</g>
	<g>
		<text transform="matrix(1 0 0 1 47.895 131.9482)"><tspan x="0" y="0" fill="#209BC6" font-family="'AGaramondPro-Regular'" font-size="19">In attempting to make sure that everyone could participate in the </tspan><tspan x="0" y="22.8" fill="#209BC6" font-family="'AGaramondPro-Regular'" font-size="19">discussion without necessarily reading the book - and with varying </tspan><tspan x="0" y="45.6" fill="#209BC6" font-family="'AGaramondPro-Regular'" font-size="19">levels of exposure to the ideas - we wanted to create a curriculum for </tspan><tspan x="0" y="68.4" fill="#209BC6" font-family="'AGaramondPro-Regular'" font-size="19">people to engage with the key concepts in the text.</tspan></text>
	</g>
	<g>
		<text transform="matrix(1 0 0 1 305.9849 644.2119)"><tspan x="0" y="0" fill="#209BC6" font-family="'AGaramondPro-Regular'" font-size="19">a web of ideas based on a chat held</tspan><tspan x="0" y="22.8" fill="#209BC6" font-family="'AGaramondPro-Regular'" font-size="19">via skype between family, friends, and</tspan><tspan x="0" y="45.601" fill="#209BC6" font-family="'AGaramondPro-Regular'" font-size="19">strangers in november 2017. 15 people</tspan><tspan x="0" y="68.399" fill="#209BC6" font-family="'AGaramondPro-Regular'" font-size="19">were involved, calling in from the us,</tspan><tspan x="0" y="91.2" fill="#209BC6" font-family="'AGaramondPro-Regular'" font-size="19">canada, and england.</tspan></text>
	</g>
</g>
<g id="questions">
</g>
<g id="sub-thoughts">
</g>
<g id="Layer_14">
</g>
<g id="main_ideas">
	<text transform="matrix(0.9327 -0.3607 0.3607 0.9327 219.2017 319.7534)"><tspan x="0" y="0" fill="#ED2426" font-family="'AGaramondPro-BoldItalic'" font-size="29.2709">SUMMARY OF </tspan><tspan x="14.196" y="35.126" fill="#ED2426" font-family="'AGaramondPro-BoldItalic'" font-size="29.2709">MAIN IDEAS</tspan></text>
	<text transform="matrix(0.9106 0.4134 -0.4134 0.9106 99.978 398.1445)"><tspan x="0" y="0" fill="#ED2426" font-family="'AGaramondPro-BoldItalic'" font-size="29.2709">GUIDING</tspan><tspan x="-17.035" y="35.125" fill="#ED2426" font-family="'AGaramondPro-BoldItalic'" font-size="29.2709">QUESTIONS</tspan></text>
	<text transform="matrix(0.9091 -0.4167 0.4167 0.9091 340.1489 595.8242)"><tspan x="0" y="0" fill="#ED2426" font-family="'AGaramondPro-BoldItalic'" font-size="29.2709">DISCUSSION</tspan><tspan x="21.72" y="35.125" fill="#ED2426" font-family="'AGaramondPro-BoldItalic'" font-size="29.2709">MINUTES</tspan></text>
	<g>
		<g>
			<path fill="none" stroke="#ED2426" stroke-miterlimit="10" d="M168.716,841.222c1.531-3.076,4.849-7.055,10.761-9.557
				c3.916-1.657,8.199-2.096,8.362-1.923c0.358,0.379,0.333,4.41,0.21,6.128c-0.03,0.42-1.293,0.881-1.462,0.591
				c-1.463-2.51-3.177-4.605-6.798-3.068c-6.657,2.826-8.577,12.258-5.642,18.497c2.586,5.497,6.255,5.663,8.922,4.468
				c2.991-1.34,3.988-4.792,5.565-8.202c0.191-0.413,1.348-0.637,1.454-0.359c0.591,1.541,0.027,6.001-0.35,6.522
				c-0.498,0.689-2.961,2.256-6.079,3.653c-7.347,3.293-12.768,1.375-15.207-3.654C166.341,849.96,166.92,844.831,168.716,841.222z"
				/>
			<path fill="none" stroke="#ED2426" stroke-miterlimit="10" d="M200.083,843.978c0.045,1.852,0.277,2.921,0.731,3.468
				c0.455,0.547,1.206,0.532,3.718-0.368c3.213-1.152,4.08-2.738,6.226-6.671c0.214-0.394,1.471-0.567,1.578-0.279
				c0.437,1.173-0.485,6.043-1.003,6.529c-1.191,1.118-5.604,1.794-8.938,3.026c-1.686,0.622-2.528,0.938-4.207,1.586
				c-1.751,0.677-3.746,1.956-5.271,2.213c-0.357,0.06-0.872-0.891-0.418-1.237c0.453-0.266,0.68-0.396,1.134-0.659
				c1.473-0.874,1.66-1.227,1.478-4.877c-0.276-5.848-0.374-8.779-0.481-14.66c-0.077-3.192-0.271-3.882-2.383-3.403
				c-0.43,0.099-0.646,0.147-1.077,0.248c-0.473-0.06-0.615-1.103-0.185-1.326c1.662-0.862,4.156-1.434,6.062-2.115
				c1.907-0.682,3.993-1.799,5.377-1.99c0.423-0.059,0.765,0.964,0.296,1.279c-0.39,0.211-0.584,0.316-0.973,0.528
				c-1.61,0.866-1.864,1.196-1.85,4.866C199.896,835.686,199.934,838.453,200.083,843.978z"/>
			<path fill="none" stroke="#ED2426" stroke-miterlimit="10" d="M225.125,841.054c0.285,0.152,0.372,1.171,0.091,1.33
				c-1.297,0.737-3.91,1.006-5.62,1.523c-1.859,0.562-3.943,1.688-5.346,1.788c-0.324,0.023-0.701-1.027-0.14-1.325
				c0.379-0.2,0.569-0.3,0.948-0.499c1.511-0.793,1.733-1.092,1.816-4.743c0.148-5.847,0.265-8.778,0.583-14.646
				c0.154-3.188,0.031-3.818-2.108-3.54c-0.47,0.061-0.703,0.092-1.173,0.154c-0.344-0.13-0.519-1.135-0.09-1.335
				c1.751-0.817,4.304-1.133,6.243-1.667c1.859-0.513,4.136-1.592,5.681-1.628c0.351-0.008,0.606,1.038,0.119,1.317
				c-0.45,0.192-0.674,0.287-1.124,0.481c-1.67,0.705-1.937,1.051-2.188,4.71c-0.418,5.861-0.583,8.787-0.831,14.63
				c-0.154,3.187,0.035,3.787,2.038,3.565C224.466,841.123,224.686,841.1,225.125,841.054z"/>
			<path fill="none" stroke="#ED2426" stroke-miterlimit="10" d="M231.773,818.992c2.078-2.684,6.053-5.879,12.245-7.096
				c4.101-0.806,8.314-0.348,8.441-0.142c0.277,0.449-0.55,4.378-1.012,6.038c-0.112,0.403-1.421,0.592-1.527,0.272
				c-0.918-2.769-2.151-5.162-5.944-4.413c-6.973,1.378-10.676,10.186-9.083,16.895c1.404,5.911,4.897,6.845,7.701,6.234
				c3.144-0.685,4.78-3.855,6.982-6.863c0.265-0.362,1.424-0.34,1.472-0.045c0.265,1.637-1.16,5.869-1.628,6.3
				c-0.613,0.563-3.299,1.594-6.575,2.309c-7.722,1.685-12.546-1.337-13.901-6.759C227.771,827.024,229.335,822.14,231.773,818.992z
				"/>
			<path fill="none" stroke="#ED2426" stroke-miterlimit="10" d="M258.516,815.419c0.56-3.14,0.518-3.779-1.623-3.785
				c-0.454-0.004-0.68-0.006-1.134-0.009c-0.444-0.156-0.396-1.173,0.002-1.319c1.667-0.612,4.338-0.556,6.315-0.831
				c1.978-0.276,4.308-1.008,5.841-0.871c0.384,0.034,0.507,1.101-0.009,1.313c-0.47,0.117-0.704,0.178-1.173,0.297
				c-1.74,0.443-2.039,0.824-2.753,4.418c-0.408,2.011-0.607,3.015-0.994,5.026c-0.142,0.734-0.088,1.104,0.31,1.049
				c1.192-0.167,2.735-1.351,4.062-2.795c1.854-1.992,2.794-2.983,4.708-4.947c0.257-0.291,1.961-2.177,2.258-2.524
				c0.28-0.328,0.4-0.562,0.386-0.712c-0.018-0.186-0.235-0.279-0.74-0.34c-0.633-0.01-0.949-0.016-1.583-0.022
				c-0.36-0.262-0.404-1.146,0.116-1.285c1.828-0.491,3.73-0.269,5.508-0.428c2.151-0.192,4.033-0.554,5.04-0.524
				c0.467,0.014,0.531,1.13,0.177,1.296c-0.824,0.386-2.214,0.497-3.685,1.114c-1.755,0.736-3.332,1.964-6.82,5.342
				c-1.023,0.996-1.532,1.496-2.539,2.5c-0.623,0.598-1.329,1.47-1.293,1.766c0.027,0.222,0.246,0.732,0.563,1.322
				c1.693,3.15,3.684,6.25,5.528,9.315c0.615,1.021,1.221,1.255,2.157,1.312c0.42,0.018,0.632,0.026,1.052,0.046
				c0.335,0.268,0.244,1.216,0.009,1.312c-1.1,0.45-3.566,0.248-5.361,0.452c-1.642,0.188-3.667,0.836-5.06,0.732
				c-0.387-0.028-0.638-1.006-0.284-1.277c0.463-0.15,0.693-0.226,1.158-0.375c0.863-0.262,0.926-0.648,0.715-1.145
				c-0.283-0.667-1.475-2.667-1.833-3.297c-0.648-1.104-0.975-1.656-1.632-2.757c-1.225-2.019-1.648-2.711-2.519-2.589
				c-0.911,0.128-1.04,0.939-1.377,2.76c-0.293,1.625-0.438,2.439-0.717,4.064c-0.56,3.138-0.439,3.829,1.555,3.836
				c0.406,0,0.608,0.001,1.014,0.003c0.338,0.178,0.331,1.189,0.034,1.311c-1.394,0.569-4.012,0.491-5.836,0.791
				c-1.825,0.3-4.023,1.141-5.41,1.056c-0.321-0.02-0.55-1.072-0.044-1.317c0.428-0.154,0.643-0.231,1.072-0.384
				c1.592-0.549,1.842-0.855,2.391-4.463C256.961,824.081,257.451,821.193,258.516,815.419z"/>
			<path fill="none" stroke="#ED2426" stroke-miterlimit="10" d="M301.935,819.178c-2.271,0.038-2.391,0.125-2.758,1.328
				c-0.664,2.09-0.989,3.135-1.628,5.229c-0.922,3.05-0.884,3.825,1.086,3.994c0.51,0.045,0.765,0.068,1.273,0.115
				c0.198,0.219,0.148,1.225-0.16,1.311c-1.553,0.431-4.257,0.017-6.096,0.099c-1.839,0.082-4.062,0.617-5.279,0.396
				c-0.313-0.057-0.418-1.132,0.112-1.314c0.365-0.082,0.549-0.124,0.915-0.205c1.639-0.357,1.918-0.669,2.885-4.186
				c1.562-5.628,2.385-8.436,4.117-14.043c0.922-3.052,0.953-3.804-1.161-3.987c-0.514-0.041-0.77-0.062-1.284-0.101
				c-0.386-0.357-0.169-1.215,0.28-1.315c1.792-0.399,4.399-0.042,6.388-0.081c1.906-0.038,4.333-0.505,5.76-0.177
				c0.338,0.078,0.332,1.158-0.205,1.309c-0.479,0.061-0.718,0.09-1.197,0.152c-1.609,0.197-1.948,0.577-3.078,4.062
				c-0.546,1.693-0.815,2.541-1.346,4.236c-0.38,1.164-0.377,1.232,1.827,1.199c2.597-0.039,3.896-0.046,6.492-0.031
				c2.124,0.011,2.324-0.054,2.786-1.314c0.589-1.632,0.887-2.449,1.491-4.078c1.121-2.998,1.191-3.747-0.909-4.041
				c-0.461-0.066-0.692-0.098-1.153-0.162c-0.286-0.228-0.1-1.225,0.391-1.301c1.673-0.258,4.225,0.187,6.13,0.247
				c1.988,0.063,4.553-0.339,5.927,0.131c0.261,0.089,0.269,1.172-0.274,1.295c-0.482,0.051-0.724,0.078-1.206,0.13
				c-1.703,0.184-2.095,0.43-3.406,3.851c-2.097,5.475-3.105,8.222-5.035,13.728c-1.041,2.998-1.079,3.665,0.876,4.01
				c0.475,0.086,0.713,0.129,1.188,0.217c0.225,0.229,0.006,1.226-0.306,1.295c-1.541,0.345-4.095-0.199-5.934-0.213
				c-1.877-0.014-4.096,0.409-5.327,0.119c-0.311-0.073-0.359-1.153,0.179-1.308c0.369-0.063,0.555-0.093,0.924-0.155
				c1.692-0.271,1.989-0.569,3.137-4.031c0.712-2.189,1.074-3.28,1.812-5.465c0.287-0.892,0.29-0.973-1.861-0.98
				C305.758,819.129,304.484,819.136,301.935,819.178z"/>
			<path fill="none" stroke="#ED2426" stroke-miterlimit="10" d="M341.709,808.181c2.639,0.28,5.615,0.533,5.615,0.533
				c0.043,0.077-1.663,3.437-2.792,5.558c-0.196,0.369-1.501,0.203-1.554-0.028c-0.175-0.77,0.276-2.41,0.161-2.868
				c-0.223-0.885-1.245-1.455-3.296-1.663c-1.28-0.129-1.921-0.191-3.202-0.308c-1.396-0.127-1.528-0.061-2.141,1.309
				c-1.124,2.508-1.677,3.766-2.764,6.283c-0.443,1.013-0.367,1.09,0.671,1.174c1.055,0.084,1.582,0.13,2.636,0.224
				c2.076,0.184,2.616-0.062,3.841-1.737c0.245-0.335,0.368-0.502,0.614-0.836c0.437-0.293,1.555-0.025,1.525,0.196
				c-0.105,0.791-1.257,2.427-1.895,3.774c-0.631,1.336-1.027,3.082-1.583,3.813c-0.194,0.256-1.368,0.206-1.497-0.105
				c0.082-0.367,0.125-0.549,0.208-0.916c0.405-1.759,0.039-2.102-2.024-2.28c-1.047-0.091-1.571-0.133-2.619-0.215
				c-1.032-0.08-1.202,0.021-1.593,1.002c-0.736,1.77-1.1,2.655-1.818,4.429c-0.707,1.708-1.059,2.867-0.784,3.498
				c0.282,0.646,0.902,0.942,3.707,1.165c3.342,0.264,4.752-0.828,8.281-3.543c0.351-0.271,1.542,0.093,1.53,0.391
				c-0.048,1.184-2.895,5.316-3.583,5.546c-1.333,0.444-4.988-0.603-9.193-0.895c-1.987-0.138-2.981-0.2-4.971-0.306
				c-1.913-0.103-4.229,0.246-5.554-0.133c-0.308-0.088-0.307-1.164,0.236-1.295c0.526-0.056,0.789-0.082,1.315-0.136
				c1.817-0.188,2.127-0.434,3.434-3.839c2.106-5.447,3.202-8.162,5.476-13.572c1.218-2.946,1.319-3.651-0.597-4.071
				c-0.392-0.084-0.587-0.127-0.979-0.21c-0.355-0.282-0.133-1.247,0.37-1.285c1.606-0.122,4.045,0.38,5.656,0.505
				C336.216,807.625,338.049,807.791,341.709,808.181z"/>
			<path fill="none" stroke="#ED2426" stroke-miterlimit="10" d="M352.369,814.724c1.249-2.382,1.338-2.938,0.073-3.417
				c-0.506-0.191-0.759-0.286-1.266-0.476c-0.327-0.347-0.035-1.186,0.421-1.223c2.101-0.17,5.017,0.374,8.172,0.889
				c3.36,0.548,5.985,1.36,7.753,2.575c1.707,1.173,2.858,3.211,2.38,5.586c-0.729,3.617-4.485,4.83-7.617,5.049
				c-0.735,0.051-0.781,0.282-0.778,0.733c0.033,4.864,0.19,8.362,0.918,9.444c0.401,0.596,1.636,0.976,2.111,1.311
				c0.277,0.195,0,1.025-0.334,1.111c-0.611,0.157-1.89-0.137-3.513-0.43c-1.36-0.244-2.357-0.601-2.892-1.071
				c-0.675-0.594-1.243-1.646-1.307-3.656c-0.077-2.218-0.118-3.327-0.209-5.546c-0.072-1.296-0.488-1.739-1.666-1.92
				c-0.982-0.151-1.118-0.059-1.502,0.638c-0.919,1.747-1.375,2.624-2.274,4.377c-1.475,2.839-1.51,3.468,0.379,4.121
				c0.385,0.132,0.577,0.201,0.961,0.334c0.315,0.235-0.026,1.198-0.377,1.225c-1.389,0.104-3.742-0.654-5.568-0.893
				c-1.825-0.238-4.162-0.071-5.455-0.551c-0.3-0.111-0.286-1.229,0.181-1.252c0.483-0.021,0.724-0.029,1.207-0.049
				c1.675-0.068,1.966-0.334,3.565-3.626C348.302,822.668,349.629,820.012,352.369,814.724z M361.039,812.446
				c-1.548-0.26-1.667-0.051-2.194,0.882c-1.622,2.984-2.421,4.483-3.989,7.486c-0.521,1.014-0.265,1.2,1.551,1.488
				c3.75,0.595,7.163-2.073,7.75-5.301C364.504,815.095,364.013,812.945,361.039,812.446z"/>
			<path fill="none" stroke="#ED2426" stroke-miterlimit="10" d="M391.566,817.439c2.576,0.689,5.495,1.406,5.495,1.406
				c0.03,0.083-2.183,3.138-3.631,5.055c-0.251,0.333-1.523-0.036-1.539-0.272c-0.054-0.786,0.646-2.34,0.603-2.811
				c-0.084-0.907-1.012-1.631-3.016-2.156c-1.25-0.327-1.876-0.489-3.129-0.804c-1.366-0.344-1.508-0.299-2.327,0.959
				c-1.502,2.304-2.244,3.459-3.71,5.777c-0.596,0.932-0.533,1.021,0.484,1.266c1.033,0.248,1.548,0.374,2.58,0.631
				c2.031,0.506,2.605,0.349,4.081-1.115c0.295-0.293,0.443-0.441,0.74-0.733c0.479-0.221,1.547,0.221,1.483,0.436
				c-0.227,0.764-1.624,2.199-2.464,3.432c-0.833,1.221-1.497,2.886-2.161,3.521c-0.232,0.223-1.388-0.01-1.468-0.338
				c0.138-0.35,0.208-0.525,0.347-0.875c0.674-1.675,0.363-2.068-1.657-2.566c-1.025-0.253-1.538-0.375-2.565-0.619
				c-1.011-0.24-1.193-0.169-1.733,0.739c-1.004,1.634-1.503,2.454-2.49,4.095c-0.964,1.578-1.491,2.665-1.316,3.331
				c0.18,0.684,0.747,1.073,3.495,1.729c3.274,0.781,4.846-0.074,8.765-2.205c0.391-0.213,1.516,0.333,1.458,0.625
				c-0.23,1.159-3.696,4.794-4.414,4.914c-1.395,0.232-4.855-1.37-8.98-2.312c-1.949-0.445-2.926-0.659-4.881-1.072
				c-1.88-0.397-4.229-0.413-5.482-0.993c-0.291-0.135-0.123-1.2,0.436-1.245c0.529,0.026,0.795,0.041,1.325,0.069
				c1.829,0.096,2.172-0.097,3.993-3.258c2.929-5.055,4.435-7.569,7.525-12.561c1.662-2.721,1.872-3.403,0.038-4.116
				c-0.375-0.144-0.562-0.215-0.938-0.357c-0.309-0.334,0.061-1.255,0.564-1.215c1.611,0.129,3.952,1.006,5.531,1.38
				C386.198,816.032,387.991,816.482,391.566,817.439z"/>
			<path fill="none" stroke="#ED2426" stroke-miterlimit="10" d="M430.128,830.388c1.597,0.649,2.358,0.472,3.096,0.227
				c0.334-0.11,1.292,0.508,1.24,0.644c-0.289,0.755-3.786,3.976-4.886,4.945c-0.282,0.248-1.571-0.334-1.53-0.627
				c0.125-0.89,1.218-2.541,0.866-3.109c-0.502-0.811-1.53-1.338-2.54-1.736c-0.684-0.271-1.026-0.401-1.711-0.668
				c-1.168-0.453-1.208-0.469-1.933,0.369c-4.479,5.343-6.666,8.046-10.934,13.509c-1.958,2.501-2.223,3.152-0.447,4.079
				c0.515,0.268,0.771,0.404,1.285,0.675c0.141,0.291-0.382,1.167-0.671,1.142c-1.716-0.147-4.113-1.613-5.794-2.197
				c-1.755-0.609-4.219-0.891-5.642-1.782c-0.274-0.172-0.048-1.227,0.515-1.2c0.599,0.116,0.897,0.175,1.496,0.295
				c1.656,0.312,2.034,0.127,4.241-2.78c4.214-5.521,6.377-8.254,10.809-13.655c0.632-0.761,0.632-0.882-0.662-1.347
				c-0.643-0.231-0.964-0.344-1.608-0.571c-1.1-0.389-2.278-0.723-3.583-0.338c-0.975,0.287-2.401,1.357-3.781,2.029
				c-0.301,0.146-1.5-0.589-1.305-0.898c1.092-1.734,3.756-4.079,4.925-4.924c0.212-0.153,1.083,0.155,1.125,0.34
				c0.079,0.343,0.073,1.076,2.759,2.021C421.368,826.905,424.303,828.018,430.128,830.388z"/>
			<path fill="none" stroke="#ED2426" stroke-miterlimit="10" d="M436.197,835.934c4.194-0.938,8.058-0.081,10.851,1.241
				c4.668,2.21,9.314,7.36,5.599,14.502c-1.806,3.472-5.553,6.365-9.438,7.584c-2.668,0.837-7.221,1.174-11.545-0.79
				c-8.116-3.686-7.924-9.839-6.377-13.595C427.077,840.534,431.196,837.052,436.197,835.934z M441.976,838.474
				c-4.024,0.745-9.773,4.868-12.205,10.477c-1.423,3.282-0.893,6.381,2.103,7.735c1.427,0.645,3.483,0.854,6.022-0.169
				c4.928-1.986,8.662-5.789,10.686-9.861c1.94-3.905,0.81-6.467-1.854-7.732C445.282,838.236,443.573,838.178,441.976,838.474z"/>
		</g>
	</g>
	<g>
		<g>
			<path fill="none" stroke="#ED2426" stroke-miterlimit="10" d="M184.461,1101.405c2.246-2.4,2.627-3.032,1.238-4.075
				c-0.458-0.353-0.684-0.528-1.139-0.883c-0.24-0.517,0.4-1.399,0.922-1.291c2.195,0.455,5.585,2.095,9.76,3.887
				c4.833,2.075,8.423,4.278,10.676,7.288c2.228,2.977,3.097,6.952,1.557,11.225c-1.446,4.014-4.675,7.314-8.844,8.972
				c-7.922,3.148-16.797,0.211-21.919-2.092c-2.126-0.956-4.128-2.182-6.57-3.344c-2.298-1.094-5.348-1.964-6.881-3.224
				c-0.345-0.284,0.241-1.518,0.944-1.266c0.59,0.194,0.886,0.289,1.477,0.48c2.181,0.726,2.739,0.585,5.966-2.597
				C176.889,1109.333,179.451,1106.718,184.461,1101.405z M178.354,1117.073c-1.275,1.284-1.694,1.967-2.01,2.612
				c-0.533,1.089,0.184,2.36,2.3,3.303c2.404,1.07,5.99,2.008,10.806,0.823c5.983-1.473,9.933-6.076,11.506-10.141
				c1.142-2.951,2.42-8.924-5.294-12.159c-1.873-0.784-2.145-0.756-3.509,0.803C186.777,1108.311,184.017,1111.264,178.354,1117.073
				z"/>
			<path fill="none" stroke="#ED2426" stroke-miterlimit="10" d="M221.519,1112.507c4.764-1.764,9.174-1.532,12.521-0.616
				c5.593,1.531,11.997,6.132,9.766,15.785c-1.084,4.693-4.684,9.31-9.241,11.753c-3.132,1.679-9.015,3.112-15.162,1.3
				c-11.541-3.402-11.896-11.398-10.255-16.123C211.043,1119.146,215.84,1114.609,221.519,1112.507z M228.502,1114.572
				c-4.511,1.709-10.92,7.513-13.231,14.672c-1.352,4.19-0.169,8.009,4.035,9.258c2.001,0.595,4.762,0.526,7.762-1.221
				c5.823-3.391,9.281-8.99,10.659-14.412c1.323-5.202-0.506-7.926-3.739-8.805C232.232,1113.587,230.292,1113.895,228.502,1114.572
				z"/>
			<path fill="none" stroke="#ED2426" stroke-miterlimit="10" d="M294.936,1124.577c-1.209,0.197-1.853,0.483-2.316,0.9
				c-0.756,0.682-2.109,2.021-4.54,4.657c-6.524,7.08-13.822,16.559-20.224,20.699c-0.318,0.205-1.191,0.205-1.865,0.107
				c-0.621-0.091-1.21-0.354-1.289-0.562c-0.365-0.957,0.101-12.239,0.101-12.239c-0.406-0.173-8.798,8.808-11.335,10.355
				c-0.314,0.191-1.151,0.163-1.921,0.016c-0.565-0.108-1.22-0.397-1.315-0.628c-0.398-0.961,0.328-6.113,0.458-9.589
				c0.208-5.562,0.452-10.885,0.66-16.438c0.104-2.78-0.057-3.004-1.484-3.641c-0.411-0.182-0.617-0.274-1.026-0.458
				c-0.415-0.561,0.171-1.478,0.57-1.474c1.691,0.018,4.063,1.006,5.742,1.339c2.004,0.398,4.272,0.489,5.3,0.863
				c0.335,0.122,0.193,1.337-0.326,1.523c-0.348-0.007-0.521-0.01-0.869-0.018c-1.011-0.046-1.438,0.111-1.584,0.407
				c-0.166,0.334-0.268,1.396-0.318,3.485c-0.098,3.229-0.14,4.845-0.215,8.076c-0.078,4.229-0.011,9.835-0.011,9.835
				c0.166,0.07,6.113-5.292,7.669-6.812c-0.002-4.531,0.006-6.794,0.048-11.322c0.032-2.273-0.205-2.588-1.585-3.007
				c-0.257-0.081-0.386-0.123-0.643-0.205c-0.313-0.427,0.104-1.497,0.641-1.473c1.743,0.081,3.772,0.767,5.838,1.077
				c1.643,0.248,3.58,0.279,4.625,0.522c0.439,0.103,0.388,1.394-0.21,1.545c-0.35,0.026-0.525,0.037-0.875,0.062
				c-0.864-0.026-1.666,0.098-1.793,0.397c-0.161,0.378-0.228,0.895-0.206,1.409c0.008,1.28,0.014,1.918,0.025,3.198
				c0.043,1.47,0.067,2.205,0.115,3.676c1.406-1.379,2.102-2.07,3.479-3.464c2.152-2.217,3.267-3.517,3.295-3.745
				c0.039-0.318-0.183-0.482-0.823-0.746c-0.494-0.209-0.739-0.316-1.231-0.527c-0.325-0.459-0.016-1.529,0.576-1.5
				c1.617,0.079,3.423,0.558,4.979,0.73c1.841,0.203,3.507,0.098,4.358,0.312c0.458,0.115,0.253,1.315-0.157,1.598
				c-0.58,0.055-0.869,0.082-1.45,0.134c-1.695,0.152-2.099,0.344-4.938,2.739c-2.104,1.774-7.589,6.339-8.015,7.443
				c-0.514,1.332,0.313,10.18,0.313,10.18c0.616,0.246,10.425-10.343,14.862-15.447c0.657-0.756,2.596-3.096,2.792-3.619
				c0.116-0.31-0.14-0.61-0.695-0.844c-0.463-0.188-0.695-0.282-1.156-0.471c-0.437-0.456-0.005-1.488,0.475-1.525
				c1.374-0.105,3.726,0.455,5.097,0.555c1.656,0.121,3.348-0.059,4.128,0.134c0.376,0.093,0.214,1.208-0.236,1.548
				C295.834,1124.442,295.535,1124.487,294.936,1124.577z"/>
			<path fill="none" stroke="#ED2426" stroke-miterlimit="10" d="M298.3,1129.645c1.412-3.646,1.536-4.55-0.876-5.007
				c-0.529-0.104-0.794-0.157-1.323-0.263c-0.412-0.3-0.043-1.511,0.431-1.581c1.855-0.273,4.164,0.36,5.965,0.433
				c1.185,0.047,3.707-0.11,3.8-0.007c0.257,0.286,1.308,5.407,3.526,10.259c0.888,1.923,1.337,2.885,2.251,4.801
				c1.702,3.59,3.082,6.156,3.127,6.158c0.098,0.004,0.812-1.791,1.162-2.847c0.861-2.646,1.283-3.973,2.106-6.625
				c0.909-2.992,1.651-5.767,1.82-6.588c0.467-2.271,0.381-2.979-2.059-3.271c-0.574-0.067-0.863-0.102-1.436-0.172
				c-0.432-0.41-0.179-1.491,0.325-1.608c1.829-0.426,4.088,0.085,5.893,0.036c2.042-0.056,4.091-0.689,5.506-0.331
				c0.305,0.077,0.39,1.267-0.025,1.606c-0.454,0.112-0.682,0.167-1.137,0.277c-2.134,0.5-2.904,1.082-3.689,3.341
				c-0.318,0.917-1.262,3.659-2.192,6.662c-1.358,4.414-2.063,6.615-3.525,11.014c-1.151,3.451-1.778,6.77-2.409,7.677
				c-0.211,0.304-1.943,0.493-3.292,0.493c-0.104,0-1.468-3.542-2.845-6.454c-2.104-4.493-3.121-6.746-5.082-11.271
				c-0.868-2.047-2.908-6.949-2.908-6.949c-0.06,0-0.48,1.08-1.384,3.518c-1.33,3.52-2.012,5.278-3.409,8.784
				c-1.182,2.919-2.185,5.614-2.389,6.425c-0.567,2.252-0.659,2.866,1.962,3.38c0.616,0.126,0.923,0.188,1.541,0.312
				c0.236,0.425,0.124,1.503-0.349,1.592c-2.029,0.383-4.574-0.4-6.55-0.541c-2.184-0.155-4.402,0.209-5.992-0.344
				c-0.369-0.128-0.396-1.323,0.253-1.589c0.484-0.05,0.725-0.075,1.209-0.127c2.42-0.254,3.315-0.797,4.334-2.877
				c0.431-0.88,1.655-3.516,2.865-6.425C295.488,1136.793,296.447,1134.415,298.3,1129.645z"/>
			<path fill="none" stroke="#ED2426" stroke-miterlimit="10" d="M335.764,1145.512c-0.636,2.203-0.773,3.543-0.417,4.347
				c0.358,0.808,1.313,1.084,4.836,0.816c4.507-0.343,6.25-2.03,10.019-6.214c0.382-0.425,2.009-0.32,2.066,0.047
				c0.235,1.493-2.34,7.167-3.166,7.63c-1.988,1.115-7.879,0.61-12.627,0.917c-2.4,0.154-3.6,0.218-6.001,0.329
				c-2.505,0.116-5.545,0.789-7.617,0.406c-0.477-0.088-0.653-1.406,0.071-1.606c0.685-0.108,1.026-0.166,1.71-0.278
				c2.226-0.387,2.647-0.724,3.969-5.048c2.135-6.921,3.138-10.393,5.012-17.344c0.998-3.782,0.973-4.646-1.482-4.874
				c-0.501-0.045-0.751-0.069-1.252-0.116c-0.491-0.25-0.28-1.529,0.251-1.625c2.039-0.368,4.945-0.154,7.224-0.329
				c2.278-0.175,4.902-0.862,6.44-0.702c0.476,0.05,0.613,1.367,0.012,1.61c-0.487,0.14-0.73,0.21-1.218,0.348
				c-2.017,0.56-2.358,0.861-3.428,5.229C338.521,1135.649,337.642,1138.939,335.764,1145.512z"/>
			<path fill="none" stroke="#ED2426" stroke-miterlimit="10" d="M359.456,1123.643c3.522-3.662,7.609-5.369,11.036-6.002
				c5.727-1.058,13.553,0.284,15.74,9.945c1.063,4.698-0.191,10.425-3.256,14.613c-2.105,2.877-6.809,6.732-13.141,7.776
				c-11.888,1.96-15.661-5.092-16.24-10.057C352.925,1134.178,355.257,1128.007,359.456,1123.643z M366.654,1122.463
				c-3.328,3.499-6.573,11.518-5.54,18.969c0.605,4.361,3.329,7.286,7.662,6.58c2.063-0.336,4.524-1.598,6.476-4.478
				c3.786-5.587,4.481-12.138,3.365-17.62c-1.07-5.261-3.919-6.913-7.226-6.296C369.596,1119.953,367.973,1121.075,366.654,1122.463
				z"/>
			<path fill="none" stroke="#ED2426" stroke-miterlimit="10" d="M397.573,1132.74c-1.487,0.388-1.595,0.365-1.958,1.45
				c-0.842,2.22-1.273,3.331-2.157,5.547c-0.54,1.548-0.562,1.927-0.5,2.195c0.084,0.357,0.921,0.488,1.872,0.397
				c0.755-0.091,1.134-0.137,1.89-0.232c0.587,0.185,0.644,1.455,0.141,1.669c-1.97,0.836-4.699,1.007-6.96,1.522
				c-1.799,0.41-3.707,1.115-4.911,1.223c-0.629,0.057-0.99-1.15-0.593-1.562c0.478-0.176,0.716-0.266,1.193-0.443
				c2.485-0.912,3.065-1.467,4.847-5.366c3.153-6.899,6.147-13.992,8.697-20.981c0.901-2.469,1.464-5.389,1.645-5.665
				c0.599-0.914,4.206-3.316,4.251-3.331c0.037-0.011,0.055-0.016,0.091-0.026c0.461-0.142,0.898-0.037,1.047,0.444
				c2.398,7.756,4.46,15.665,6.829,23.43c0.937,3.071,1.163,3.827,3.663,3.322c0.5-0.102,0.75-0.153,1.249-0.257
				c0.487,0.135,0.696,1.395,0.333,1.579c-1.396,0.709-4.646,1.327-7.185,2.082c-2.843,0.846-5.318,1.823-6.683,2.052
				c-0.591,0.099-0.893-1.085-0.672-1.479c0.453-0.181,0.679-0.271,1.131-0.453c2.261-0.916,2.349-1.57,2.101-2.644
				c-0.552-2.266-0.831-3.399-1.387-5.664c-0.201-0.896-0.311-0.911-1.841-0.479C401.257,1131.762,400.031,1132.098,397.573,1132.74
				z M403.446,1128.622c1.176-0.334,1.2-0.439,0.935-1.558c-0.5-2.204-0.751-3.307-1.257-5.51c-0.331-1.337-0.93-3.789-1.115-4.786
				c-0.038,0.012-0.056,0.018-0.094,0.029c-0.692,2.073-1.049,3.108-1.778,5.179c-1,2.888-1.518,4.332-2.589,7.214
				c-0.38,0.956-0.188,1.097,1.188,0.729C400.623,1129.414,401.565,1129.156,403.446,1128.622z"/>
			<path fill="none" stroke="#ED2426" stroke-miterlimit="10" d="M422.846,1110.66c-0.089-3.29-0.262-4.004-1.995-3.764
				c-0.576,0.073-0.864,0.108-1.44,0.179c-0.537-0.196-0.7-1.272-0.25-1.565c1.889-1.229,5.479-2.462,9.764-4.153
				c4.96-1.959,9.131-2.958,12.913-2.438c3.74,0.515,7.207,2.699,9.121,6.815c1.799,3.868,1.786,8.51-0.07,12.652
				c-3.528,7.875-12.013,12.087-17.312,14.076c-2.199,0.825-4.497,1.37-7.059,2.268c-2.411,0.845-5.192,2.382-7.16,2.564
				c-0.444,0.041-0.899-1.248-0.224-1.566c0.556-0.277,0.833-0.419,1.387-0.699c2.058-1.021,2.358-1.514,2.412-6.047
				C423.03,1121.631,423.013,1117.966,422.846,1110.66z M429.548,1126.082c-0.006,1.812,0.176,2.592,0.406,3.272
				c0.389,1.15,1.8,1.544,3.983,0.716c2.481-0.94,5.726-2.814,8.366-7.071c3.281-5.29,2.885-11.362,1.141-15.356
				c-1.267-2.9-4.604-8.02-12.468-4.838c-1.909,0.772-2.085,0.984-1.964,3.056C429.388,1113.917,429.497,1117.962,429.548,1126.082z
				"/>
		</g>
	</g>
	<g>
		<g opacity="0.9">
			<path fill="#ED2426" d="M143.995,61.624c-2.507-6.461-3.118-14.932-2.464-20.875c0.634-5.756,2.509-10.606,5.97-13
				c2.456-1.699,6.476-1.825,11.019,1.021c3.793,2.375,6.753,6.136,8.102,8.205c0.497,0.763,0.711,0.818,0.844,0.428
				c0.213-0.648,0.321-0.974,0.535-1.623c0.126-0.329,0.211-0.285,0.591-0.099c0.38,0.186,0.452,0.349,0.356,1.213
				c-0.129,1.173-0.294,10.666-0.258,12.479c0.006,0.324-0.06,0.553-0.236,0.535c-0.266-0.021-0.398-0.032-0.664-0.055
				c-0.219-0.041-0.29-0.15-0.369-0.698c-0.332-2.294-0.975-5.732-2.453-9.32c-1.479-3.589-3.478-6.891-6.77-8.956
				c-7.46-4.679-11.436,2.55-12.408,11.59c-0.385,3.582-0.415,11.237,2.198,18.854c2.297,6.698,4.602,8.76,7.403,10.44
				c4.721,2.833,9.105,0.748,11.27-2.319c0.165-0.233,0.251-0.273,0.358-0.03c0.193,0.349,0.291,0.522,0.484,0.869
				c0.114,0.182,0.188,0.356,0.023,0.593c-2.888,4.173-7.811,7.321-13.693,3.697C148.91,71.541,146.049,66.92,143.995,61.624z"/>
			<path fill="#ED2426" d="M178.315,84.465c-2.687-2.6-3.935-5.908-4.209-10.032c-0.197-2.956,0.074-7.166,0.963-15.245
				c0.646-5.871,0.972-8.807,1.618-14.678c0.237-2.159,0.044-3.252-1.28-3.787c-0.804-0.324-1.205-0.491-2.006-0.833
				c-0.255-0.11-0.286-0.251-0.238-0.684c0.06-0.543,0.089-0.815,0.149-1.358c0.041-0.37,0.098-0.475,0.439-0.33
				c0.426,0.182,2.492,1.282,5.842,2.486c3.349,1.203,5.449,1.608,5.925,1.75c0.347,0.103,0.376,0.239,0.349,0.484
				c-0.07,0.641-0.106,0.962-0.177,1.603c-0.034,0.309-0.09,0.419-0.393,0.33c-0.866-0.256-1.297-0.388-2.161-0.662
				c-1.25-0.399-2.104,0.529-2.347,1.846c-0.099,0.537-0.62,4.84-0.966,7.986c-0.179,1.627-0.27,2.441-0.449,4.068
				c-0.36,3.267-1.043,11.163-1.223,13.142c-0.258,2.841-0.248,5.876,0.516,8.282c1.218,3.836,3.876,5.772,6.398,6.406
				c2.479,0.622,5.185-0.022,6.919-1.945c1.996-2.211,2.97-5.867,3.471-10.422c0.58-5.27,0.871-7.906,1.451-13.176
				c0.515-4.679,0.818-8.267,0.858-9.826c0.042-1.621-0.535-2.855-1.674-3.074c-0.771-0.148-1.156-0.225-1.925-0.387
				c-0.262-0.055-0.286-0.25-0.252-0.559c0.065-0.591,0.099-0.886,0.164-1.477c0.034-0.308,0.091-0.42,0.353-0.366
				c0.437,0.092,2.425,0.71,5.37,1.189c3.031,0.494,4.467,0.457,4.862,0.506c0.396,0.049,0.415,0.299,0.395,0.483
				c-0.06,0.542-0.09,0.813-0.149,1.354c-0.04,0.369-0.111,0.61-0.332,0.583c-0.724-0.088-1.085-0.133-1.808-0.231
				c-1.631-0.223-1.968,1.48-2.165,2.19c-0.163,0.587-1.118,9.342-1.212,10.204c-0.095,0.861-1.372,11.622-1.764,13.999
				c-0.825,5-2.321,8.754-4.996,11.265c-2.002,1.879-4.832,2.866-8.613,1.889C181.76,86.854,179.643,85.749,178.315,84.465z"/>
			<path fill="#ED2426" d="M209.847,62.115c0.501-4.551,0.931-8.491,1.085-10.274c0.175-2.03-0.24-3.114-1.348-3.206
				c-0.71-0.059-1.064-0.091-1.773-0.159c-0.221-0.021-0.244-0.208-0.218-0.455c0.068-0.615,0.101-0.923,0.169-1.538
				c0.034-0.307,0.092-0.427,0.313-0.405c0.398,0.039,1.747,0.393,5.484,0.603c2.49,0.14,6.667,0.041,7.472,0.046
				c3.714,0.025,6.537,1.458,7.98,3.593c1.273,1.882,1.823,4.617,1.573,6.891c-0.846,7.678-3.745,10.79-9.673,12.565
				c-0.005,0.049-0.006,0.075-0.012,0.124c1.016,0.545,1.504,1.69,1.808,2.302c0.38,0.765,2.995,6.969,3.226,7.729
				c0.174,0.573,2.425,6.055,3.188,6.843c0.831,0.857,1.874,0.903,3.141,0.798c0.316-0.026,0.333,0.218,0.307,0.464
				c-0.06,0.541-0.089,0.81-0.148,1.351c-0.04,0.368-0.107,0.557-0.423,0.583c-0.362,0.03-1.517-0.052-3.503,0.079
				c-1.309,0.086-3.377,0.516-3.673,0.389c-0.326-0.14-1.196-2.646-1.504-3.425c-0.283-0.715-2.075-6.508-2.233-6.988
				c-0.138-0.417-1.805-4.831-2.242-5.689c-0.959-1.889-1.846-3.561-4.434-3.642c-0.401-0.012-0.849-0.025-1.492,0.133
				c-0.152,1.378-0.227,2.067-0.379,3.445c-0.399,3.626-1.122,10.525-1.169,11.439c-0.066,1.282,0.182,2.417,0.851,2.438
				c1.125,0.036,1.687,0.049,2.813,0.064c0.313,0.003,0.336,0.189,0.303,0.497c-0.06,0.541-0.089,0.811-0.149,1.352
				c-0.048,0.431-0.104,0.553-0.552,0.547c-0.491-0.006-1.595-0.155-5.823-0.38c-4.05-0.216-5.084-0.176-5.572-0.222
				c-0.354-0.033-0.333-0.219-0.299-0.526c0.062-0.566,0.094-0.849,0.156-1.415c0.033-0.309,0.053-0.492,0.274-0.471
				c0.727,0.069,1.091,0.101,1.818,0.16c0.977,0.08,1.768-0.314,1.961-1.961c0.711-6.045,1.395-11.866,2.039-17.709
				C209.452,65.695,209.584,64.502,209.847,62.115z M213.18,68.425c0.648,0.212,1.131,0.293,1.979,0.317
				c8.122,0.228,10.568-7.712,10.853-10.292c0.311-2.826-0.332-5.53-1.475-6.952c-1.502-1.869-3.416-2.756-7.121-2.863
				c-0.536-0.015-1.141,0.089-1.57,0.443c-0.345,0.285-0.643,0.96-0.751,1.944C214.329,57.983,213.946,61.464,213.18,68.425z"/>
			<path fill="#ED2426" d="M240.717,61.301c0.5-4.543,0.929-8.478,1.082-10.251c0.174-2.018-0.25-3.006-1.384-2.893
				c-0.726,0.072-1.088,0.106-1.812,0.172c-0.226,0.021-0.251-0.158-0.225-0.404c0.068-0.614,0.099-0.922,0.167-1.537
				c0.034-0.307,0.094-0.433,0.32-0.454c0.408-0.038,1.789,0.042,5.604-0.401c2.542-0.294,6.796-1.058,7.616-1.177
				c3.782-0.551,6.656,0.474,8.124,2.38c1.294,1.68,1.857,4.307,1.607,6.579c-0.845,7.669-3.774,11.07-9.803,13.692
				c-0.005,0.049-0.008,0.073-0.014,0.122c1.035,0.384,1.533,1.445,1.841,2c0.383,0.689,3.06,6.446,3.294,7.158
				c0.178,0.541,2.475,5.653,3.249,6.334c0.843,0.743,1.899,0.665,3.184,0.416c0.32-0.062,0.34,0.174,0.314,0.42
				c-0.06,0.54-0.088,0.809-0.148,1.349c-0.04,0.368-0.108,0.563-0.429,0.625c-0.367,0.071-1.538,0.121-3.553,0.493
				c-1.328,0.245-3.426,0.948-3.726,0.851c-0.3-0.097-1.221-2.444-1.535-3.168c-0.289-0.666-2.12-6.108-2.282-6.556
				c-0.141-0.389-1.847-4.481-2.292-5.257c-0.98-1.708-1.889-3.216-4.526-2.871c-0.409,0.053-0.864,0.114-1.521,0.377
				c-0.151,1.376-0.228,2.062-0.379,3.438c-0.398,3.621-1.119,10.501-1.165,11.408c-0.064,1.265,0.192,2.338,0.875,2.25
				c1.146-0.15,1.719-0.229,2.866-0.392c0.319-0.045,0.343,0.132,0.311,0.44c-0.06,0.54-0.09,0.81-0.15,1.35
				c-0.048,0.43-0.105,0.561-0.561,0.625c-0.5,0.071-1.622,0.08-5.938,0.588c-4.133,0.486-5.192,0.735-5.69,0.782
				c-0.362,0.034-0.342-0.151-0.308-0.458c0.062-0.565,0.094-0.846,0.156-1.411c0.033-0.308,0.054-0.494,0.28-0.515
				c0.743-0.068,1.114-0.103,1.857-0.177c0.998-0.101,1.806-0.628,2-2.272c0.712-6.051,1.395-11.862,2.038-17.696
				C240.324,64.875,240.455,63.685,240.717,61.301z M244.135,66.905c0.663,0.099,1.154,0.097,2.018-0.018
				c8.277-1.099,10.738-9.166,11.022-11.743c0.311-2.823-0.35-5.396-1.513-6.625c-1.53-1.617-3.479-2.216-7.254-1.716
				c-0.546,0.072-1.16,0.272-1.599,0.693c-0.352,0.338-0.653,1.049-0.761,2.032C245.283,56.479,244.9,59.954,244.135,66.905z"/>
			<path fill="#ED2426" d="M271.893,58.392c0.162-1.473,1.243-12.493,1.293-13.401c0.079-1.443-0.318-1.97-2.061-1.622
				c-1.064,0.212-1.597,0.317-2.661,0.523c-0.229,0.044-0.353-0.05-0.326-0.295c0.073-0.663,0.108-0.995,0.181-1.658
				c0.027-0.245,0.18-0.394,0.363-0.429c0.549-0.106,2.864-0.369,7.134-1.258c4.086-0.852,5.581-1.367,6.225-1.507
				c0.229-0.05,0.3,0.112,0.273,0.357c-0.067,0.613-0.102,0.921-0.169,1.534c-0.034,0.308-0.185,0.461-0.415,0.511
				c-0.864,0.188-1.296,0.282-2.16,0.468c-0.919,0.197-1.662,0.833-1.796,2.06c-0.068,0.614-1.7,14.203-1.781,14.938
				c-0.208,1.89-0.312,2.836-0.52,4.726c-0.067,0.614-1.488,14.755-1.562,15.43c-0.209,1.903,0.447,2.063,1.917,1.746
				c0.753-0.163,1.131-0.244,1.885-0.409c0.229-0.05,0.352,0.042,0.318,0.349c-0.07,0.638-0.104,0.958-0.174,1.596
				c-0.027,0.246-0.181,0.398-0.456,0.458c-0.551,0.12-2.37,0.347-6.365,1.183c-4.361,0.912-6.353,1.472-6.857,1.571
				c-0.229,0.045-0.352-0.053-0.324-0.298c0.073-0.663,0.11-0.994,0.183-1.657c0.027-0.245,0.178-0.394,0.406-0.439
				c1.027-0.201,1.542-0.303,2.57-0.51c0.918-0.184,1.913-0.574,2.258-2.197c0.198-0.931,1.788-14.221,2.146-17.473
				C271.609,60.969,271.704,60.11,271.893,58.392z"/>
			<path fill="#ED2426" d="M287.331,75.505c-2.861-3.357-3.682-10.178-3.035-16.067c0.628-5.706,2.661-11.9,6.483-17.313
				c2.711-3.841,7.17-7.677,12.187-8.824c4.189-0.958,7.452,0.341,8.924,1.27c0.541,0.341,0.78,0.245,0.92-0.206
				c0.225-0.745,0.337-1.116,0.562-1.86c0.133-0.388,0.226-0.409,0.639-0.5s0.493,0.01,0.398,0.87
				c-0.128,1.166-0.219,10.001-0.16,11.649c0.01,0.291-0.06,0.55-0.25,0.651c-0.287,0.159-0.43,0.239-0.717,0.398
				c-0.237,0.111-0.315,0.059-0.407-0.391c-0.376-1.853-1.107-4.603-2.75-6.807c-1.642-2.204-3.853-3.739-7.489-2.908
				c-8.238,1.884-12.604,12.416-13.563,21.338c-0.382,3.551-0.292,10.31,2.685,14.759c2.621,3.918,5.186,3.836,8.27,3.133
				c5.199-1.186,9.843-5.939,12.221-10.338c0.176-0.325,0.269-0.419,0.387-0.265c0.212,0.193,0.319,0.29,0.531,0.483
				c0.125,0.092,0.204,0.206,0.029,0.533c-3.149,5.879-8.352,11.893-14.841,13.375C292.922,79.727,289.669,78.249,287.331,75.505z"
				/>
			<path fill="#ED2426" d="M324.835,71.511c-2.862-1.082-4.229-3.431-4.555-7.125c-0.233-2.637,0.022-6.719,0.906-14.757
				c0.643-5.841,0.965-8.763,1.608-14.604c0.236-2.147,0.024-3.063-1.399-2.764c-0.864,0.183-1.296,0.274-2.161,0.46
				c-0.275,0.06-0.309-0.053-0.261-0.483c0.06-0.54,0.088-0.81,0.148-1.35c0.04-0.368,0.1-0.501,0.468-0.581
				c0.459-0.099,2.691-0.403,6.271-1.132c3.579-0.729,5.796-1.325,6.301-1.421c0.367-0.07,0.398,0.047,0.371,0.292
				c-0.07,0.638-0.104,0.957-0.174,1.595c-0.034,0.308-0.092,0.438-0.413,0.499c-0.916,0.174-1.374,0.261-2.291,0.44
				c-1.33,0.26-2.233,1.592-2.48,2.951c-0.102,0.559-0.622,4.867-0.967,7.998c-0.178,1.619-0.268,2.428-0.446,4.047
				c-0.358,3.252-1.026,11.018-1.203,12.963c-0.254,2.805-0.219,5.633,0.608,7.503c1.317,2.976,4.142,3.528,6.795,3.058
				c2.607-0.463,5.421-2.068,7.224-4.521c2.07-2.817,3.061-6.625,3.561-11.167c0.578-5.255,0.869-7.882,1.447-13.138
				c0.514-4.666,0.81-8.218,0.844-9.729c0.036-1.573-0.567-2.57-1.753-2.383c-0.803,0.126-1.206,0.19-2.009,0.322
				c-0.274,0.045-0.299-0.131-0.265-0.438c0.065-0.589,0.096-0.883,0.161-1.472c0.034-0.306,0.093-0.438,0.367-0.484
				c0.457-0.075,2.538-0.242,5.591-0.685c3.144-0.456,4.617-0.811,5.025-0.863c0.408-0.051,0.427,0.189,0.407,0.374
				c-0.06,0.541-0.089,0.81-0.149,1.351c-0.04,0.368-0.111,0.62-0.338,0.648c-0.746,0.093-1.119,0.142-1.865,0.241
				c-1.684,0.224-2.025,1.975-2.227,2.723c-0.166,0.613-1.119,9.344-1.213,10.204c-0.095,0.859-1.373,11.621-1.769,14.03
				c-0.833,5.065-2.342,9.08-5.132,12.412c-2.08,2.485-5.012,4.401-8.993,5.116C328.497,72.067,326.235,72.04,324.835,71.511z"/>
			<path fill="#ED2426" d="M357.508,39.903c0.432-3.93,1.066-10.441,1.134-11.534c0.097-1.577-0.071-2.185-1.431-2.044
				c-0.853,0.088-1.28,0.134-2.134,0.23c-0.272,0.03-0.285-0.27-0.251-0.577c0.06-0.541,0.09-0.81,0.149-1.351
				c0.034-0.307,0.093-0.438,0.365-0.468c0.499-0.056,2.117-0.079,5.873-0.402c4.388-0.379,6.298-0.629,6.704-0.65
				c0.36-0.019,0.386,0.162,0.352,0.47c-0.062,0.565-0.093,0.847-0.155,1.412c-0.034,0.308-0.144,0.497-0.504,0.516
				c-1.082,0.057-1.623,0.091-2.707,0.164c-1.399,0.094-1.649,0.725-1.846,2.507c-0.088,0.799-1.243,10.085-1.715,14.386
				c-0.232,2.113-0.35,3.169-0.583,5.283c-0.115,1.043-2.108,16.388-1.717,16.823c0.191,0.213,9.906-0.207,11.299-0.485
				c2.674-0.534,6.141-8.044,7.089-10.286c0.101-0.238,0.218-0.363,0.383-0.236c0.27,0.156,0.404,0.235,0.673,0.393
				c0.12,0.127,0.135,0.227,0.028,0.554c-0.131,0.403-3.107,11.895-3.534,12.179c-0.166,0.11-4.082-0.167-8.052-0.082
				c-3.961,0.085-8.42,0.366-10.863,0.577c-1.764,0.151-3.121,0.32-4.04,0.446c-0.889,0.122-1.466,0.277-1.784,0.313
				c-0.316,0.036-0.348-0.082-0.314-0.39c0.068-0.614,0.101-0.92,0.168-1.534c0.034-0.307,0.093-0.434,0.365-0.465
				c0.872-0.098,1.308-0.145,2.178-0.235c1.677-0.174,2.042-1.051,2.129-1.85c0.129-1.167,1.948-16.474,2.36-20.221
				C357.281,41.968,357.356,41.279,357.508,39.903z"/>
			<path fill="#ED2426" d="M387.627,67.031c-2.754-2.004-4.066-4.811-4.367-8.717c-0.215-2.792,0.047-6.935,0.934-14.992
				c0.645-5.855,0.967-8.782,1.612-14.638c0.236-2.153,0.035-3.165-1.345-3.234c-0.837-0.042-1.255-0.061-2.094-0.091
				c-0.268-0.009-0.301-0.135-0.253-0.566c0.06-0.541,0.091-0.811,0.15-1.352c0.04-0.369,0.101-0.491,0.458-0.478
				c0.446,0.017,2.612,0.262,6.071,0.538s5.598,0.376,6.083,0.438c0.354,0.044,0.383,0.175,0.355,0.42
				c-0.07,0.64-0.105,0.961-0.176,1.602c-0.034,0.309-0.09,0.424-0.399,0.385c-0.883-0.112-1.325-0.163-2.209-0.26
				c-1.282-0.141-2.157,0.971-2.402,2.306c-0.101,0.547-0.622,4.852-0.968,7.991c-0.179,1.624-0.269,2.436-0.447,4.06
				c-0.359,3.26-1.037,11.099-1.215,13.063c-0.256,2.825-0.233,5.765,0.557,7.958c1.258,3.492,3.973,4.962,6.52,5.382
				c2.504,0.412,5.213-0.244,6.941-2.118c1.989-2.158,2.957-5.754,3.458-10.312c0.581-5.273,0.871-7.911,1.452-13.184
				c0.516-4.682,0.818-8.278,0.859-9.846c0.042-1.63-0.527-2.913-1.662-3.163c-0.768-0.169-1.154-0.249-1.924-0.405
				c-0.262-0.053-0.284-0.247-0.25-0.556c0.065-0.591,0.097-0.886,0.162-1.477c0.034-0.307,0.09-0.422,0.353-0.37
				c0.438,0.089,2.429,0.67,5.343,1.407c2.999,0.759,4.401,1.014,4.79,1.131s0.405,0.379,0.385,0.564
				c-0.06,0.542-0.09,0.813-0.15,1.355c-0.041,0.37-0.111,0.604-0.327,0.538c-0.709-0.214-1.063-0.317-1.773-0.519
				c-1.604-0.457-1.941,1.253-2.137,1.95c-0.162,0.578-1.118,9.341-1.213,10.205c-0.095,0.862-1.373,11.624-1.764,13.989
				c-0.822,4.976-2.303,8.585-4.962,10.984c-1.991,1.796-4.812,2.701-8.636,2.096C391.151,68.754,388.984,68.019,387.627,67.031z"/>
			<path fill="#ED2426" d="M431.767,71.051c0.689-0.598,6.552-12.887,6.923-13.47c0.398-0.627,6.498-12.221,6.769-13.354
				c0.148-0.619,0.618-0.368,1.031-0.074c5.491,3.913,6.875,5.067,7.324,5.439c0.204,0.169,0.223,0.39,0.195,0.637
				c-0.063,0.569-0.092,0.855-0.155,1.424c-0.041,0.372-0.102,0.52-0.387,0.284c-0.717-0.595-1.078-0.887-1.797-1.462
				c-1.228-0.98-1.474,0.048-1.631,1.471c-0.197,1.794-1.293,10.544-1.75,14.689c-0.19,1.733-0.288,2.6-0.478,4.333
				c-0.341,3.093-1.319,13.209-1.456,14.447c-0.259,2.351,0.001,3.623,1.023,4.445c0.964,0.776,1.446,1.173,2.406,1.984
				c0.244,0.206,0.264,0.427,0.237,0.675c-0.062,0.569-0.095,0.855-0.158,1.424c-0.041,0.372-0.101,0.521-0.426,0.246
				c-0.488-0.413-1.184-1.356-5.706-4.749c-3.784-2.838-5.434-3.649-5.974-4.005c-0.291-0.192-0.311-0.404-0.27-0.775
				c0.062-0.569,0.093-0.852,0.156-1.421c0.034-0.309,0.09-0.407,0.381-0.215c1.129,0.745,1.692,1.126,2.816,1.915
				c0.703,0.492,1.108,0.381,1.403-1.405c0.117-0.709,1.348-11.44,1.851-16.017c0.174-1.583,0.262-2.374,0.437-3.957
				c0.449-4.083,1.662-15.089,1.599-15.733c-0.033-0.023-0.049-0.036-0.082-0.06c-0.502,0.509-8.541,16.073-8.817,16.562
				c-0.332,0.587-6.716,13.624-6.945,14.088c-0.229,0.462-0.668,1.206-1.004,1.024c-0.252-0.137-0.409-0.744-0.509-1.451
				c-1.38-9.49-2.078-14.191-3.478-23.513c-0.495-3.208-3.373-19.636-3.373-19.636c-0.068,0.006-2.068,16.366-2.149,17.107
				c-0.082,0.74-1.559,13.738-1.667,15.946c-0.176,3.595,0.105,4.729,1.471,5.298c0.854,0.354,1.279,0.537,2.13,0.912
				c0.255,0.112,0.277,0.317,0.25,0.565c-0.068,0.617-0.103,0.926-0.171,1.543c-0.027,0.248-0.089,0.41-0.429,0.261
				c-0.469-0.206-1.592-0.952-5.149-2.304c-3.641-1.384-5.177-1.63-5.565-1.755c-0.346-0.11-0.382-0.185-0.328-0.678
				c0.065-0.592,0.096-0.89,0.161-1.481c0.02-0.185,0.085-0.355,0.302-0.286c0.915,0.292,1.371,0.442,2.283,0.754
				c1.635,0.561,2.204-0.894,2.686-2.89c1.006-4.175,2.863-19.927,2.985-21.037c0.096-0.864,1.125-10.18,1.273-11.979
				c0.117-1.428,0.254-2.298-1.509-2.917c-1.049-0.369-1.576-0.545-2.629-0.885c-0.259-0.083-0.281-0.281-0.254-0.528
				c0.07-0.641,0.107-0.962,0.178-1.603c0.021-0.185,0.083-0.357,0.341-0.274c0.431,0.139,1.583,0.642,5.225,2.026
				c2.014,0.765,3.144,1.057,3.655,1.272c0.64,0.27,0.867,0.629,0.991,1.524C427.979,45.968,429.895,58.506,431.767,71.051z"/>
		</g>
	</g>
	<text transform="matrix(0 1 -1 0 271.1553 1020.9141)" fill="#EC2628" font-family="'AGaramondPro-Bold'" font-size="143.2354">]</text>
	
		<text transform="matrix(-0.4172 0.9088 -0.9088 -0.4172 294.3403 848.4814)" fill="#EC2628" font-family="'AGaramondPro-Regular'" font-size="143.2354">~</text>
	
		<text transform="matrix(0.0623 0.9981 -0.9981 0.0623 275.8364 960.5557)" fill="#EC2628" font-family="'AGaramondPro-Regular'" font-size="143.2353">&gt;</text>
	
		<text transform="matrix(-0.4172 0.9088 -0.9088 -0.4172 295.3706 898.1523)" fill="#EC2628" font-family="'AGaramondPro-Regular'" font-size="143.2354">~</text>
</g>
<g id="band_aid">
	<g id="dots">
	</g>
</g>
<g id="connecting_pieces">
</g>
<g id="circling_words">
</g>
</svg>
