<?xml version="1.0" encoding="utf-8"?>
<!-- Generator: Adobe Illustrator 16.0.0, SVG Export Plug-In . SVG Version: 6.00 Build 0)  -->
<!DOCTYPE svg PUBLIC "-//W3C//DTD SVG 1.1//EN" "http://www.w3.org/Graphics/SVG/1.1/DTD/svg11.dtd">
<svg version="1.1" xmlns="http://www.w3.org/2000/svg" xmlns:xlink="http://www.w3.org/1999/xlink" x="0px" y="0px"
	 width="611.969px" height="564.083px" viewBox="0 0 611.969 564.083" enable-background="new 0 0 611.969 564.083"
	 xml:space="preserve">
<g id="background">
</g>
<g id="background_shapes" display="none">
</g>
<g id="Layer_11">
</g>
<g id="graphic_pieces" display="none">
</g>
<g id="background_text">
</g>
<g id="discussion_details">
</g>
<g id="questions">
</g>
<g id="sub-thoughts">
</g>
<g id="Layer_14">
</g>
<g id="main_ideas">
	<g>
		<g>
			<path fill="none" stroke="#ED2426" stroke-miterlimit="10" d="M111.783,77.067c0.151-4.675-0.009-5.716-2.672-5.417
				c-0.885,0.091-1.328,0.135-2.213,0.229c-0.804-0.288-0.971-1.82-0.25-2.235c3.069-1.765,8.681-3.39,15.527-5.372
				c7.928-2.296,14.531-2.98,20.016-1.464c5.422,1.499,9.791,5.458,11.366,11.687c1.479,5.852,0.267,12.353-3.092,17.543
				c-5.602,8.657-15.271,13.638-24.966,16.578c-2.958,0.897-6.053,1.484-9.484,2.604c-3.229,1.052-6.958,3.141-9.537,3.394
				c-0.59,0.058-1.281-1.757-0.382-2.202c0.737-0.39,1.106-0.579,1.845-0.967c2.748-1.411,3.108-2.078,3.189-8.459
				C111.274,92.634,111.404,87.448,111.783,77.067z M120.344,99.275c-0.102,2.549,0.123,3.655,0.41,4.632
				c0.484,1.648,2.371,2.314,5.355,1.398c3.391-1.04,7.825-3.211,11.981-8.683c5.164-6.797,5.933-15.299,4.324-21.251
				c-1.168-4.322-4.917-12.447-17.374-8.83c-3.024,0.878-3.331,1.183-3.458,4.131C121.051,80.201,120.64,89.736,120.344,99.275z"/>
			<path fill="none" stroke="#ED2426" stroke-miterlimit="10" d="M167.609,57.692c5.066-5.65,11.55-8.414,16.882-9.501
				c10.514-2.143,21.597,2.88,23.352,14.386c1.013,6.641-1.15,14.671-5.458,20.43c-2.958,3.955-9.433,9.044-17.6,10.944
				c-10.057,2.34-21.035-1.691-23.646-12.432C159.208,73.576,161.568,64.429,167.609,57.692z M178.601,55.267
				c-6.333,7.062-8.629,17.854-6.627,27.324c1.27,6.006,5.425,9.866,11.229,8.643c2.765-0.583,5.983-2.431,8.581-6.508
				c5.041-7.913,6.351-17.109,4.924-24.897c-1.369-7.469-5.687-9.864-10.828-8.864C183.09,51.506,180.451,53.204,178.601,55.267z"/>
			<path fill="none" stroke="#ED2426" stroke-miterlimit="10" d="M282.024,39.689c-1.842,0.486-2.783,1.007-3.414,1.681
				c-1.031,1.101-2.868,3.241-5.903,7.456c-7.958,11.052-15.229,26.329-22.364,34.344c-0.339,0.381-1.481,0.68-2.389,0.778
				c-0.837,0.091-1.691-0.062-1.871-0.318c-0.849-1.21-4.42-16.74-4.42-16.74c-0.634-0.084-8.189,15.407-10.78,18.611
				c-0.314,0.389-1.391,0.714-2.434,0.858c-0.765,0.106-1.724,0.01-1.951-0.251c-0.981-1.127-2.397-8.32-3.89-13.012
				c-2.389-7.512-4.709-14.701-7.31-22.142c-1.303-3.727-1.665-3.951-4.099-4.031c-0.699-0.022-1.048-0.033-1.748-0.054
				c-0.916-0.512-0.581-2.021,0.017-2.234c2.588-0.924,6.55-0.816,9.22-1.202c3.19-0.461,6.587-1.394,8.364-1.353
				c0.571,0.013,0.91,1.715,0.222,2.199c-0.523,0.147-0.786,0.22-1.309,0.368c-1.527,0.402-2.084,0.814-2.159,1.276
				c-0.084,0.522,0.283,1.99,1.2,4.813c1.387,4.368,2.075,6.557,3.434,10.932c1.807,5.718,4.315,13.24,4.315,13.24
				c0.248,0.022,6.09-9.655,7.674-12.322c-1.781-6.169-2.685-9.254-4.52-15.412c-0.904-3.094-1.398-3.426-3.654-3.405
				c-0.422,0-0.633,0-1.055,0.001c-0.66-0.44-0.522-2.064,0.311-2.265c2.732-0.655,6.049-0.545,9.324-0.911
				c2.604-0.291,5.553-0.942,7.28-0.972c0.723-0.013,1.086,1.784,0.228,2.196c-0.524,0.158-0.787,0.236-1.311,0.395
				c-1.323,0.267-2.492,0.729-2.572,1.184c-0.101,0.574-0.006,1.307,0.22,2c0.491,1.748,0.736,2.625,1.223,4.374
				c0.604,1.998,0.904,2.997,1.501,4.996c1.544-2.38,2.322-3.57,3.896-5.941c2.444-3.76,3.752-5.894,3.722-6.217
				c-0.042-0.452-0.434-0.613-1.499-0.773c-0.822-0.132-1.233-0.198-2.057-0.327c-0.653-0.524-0.555-2.097,0.377-2.252
				c2.558-0.426,5.464-0.312,7.927-0.52c2.911-0.245,5.429-0.827,6.854-0.737c0.757,0.048,0.735,1.765,0.174,2.263
				c-0.882,0.222-1.322,0.335-2.203,0.56c-2.568,0.654-3.182,1.024-6.724,5.18c-2.624,3.077-9.088,11.175-9.303,12.819
				c-0.257,1.968,3.899,13.889,3.899,13.889c0.903,0.129,11.195-17.166,16.787-25.6c0.803-1.211,3.207-4.925,3.388-5.698
				c0.106-0.455-0.355-0.82-1.268-1.019c-0.759-0.156-1.139-0.233-1.899-0.388c-0.788-0.53-0.387-2.07,0.362-2.237
				c2.181-0.486,5.918-0.196,8.086-0.322c2.618-0.152,5.195-0.697,6.498-0.543c0.619,0.073,0.534,1.665-0.11,2.216
				C283.396,39.347,282.938,39.46,282.024,39.689z"/>
			<path fill="none" stroke="#ED2426" stroke-miterlimit="10" d="M288.004,46.288c1.601-5.333,1.708-6.641-2.118-6.917
				c-0.841-0.064-1.26-0.099-2.102-0.161c-0.691-0.355-0.337-2.113,0.404-2.292c2.959-0.714,6.596-0.104,9.441-0.206
				c1.872-0.066,5.832-0.535,5.985-0.38c0.381,0.387,2.559,7.524,6.149,14.273c1.436,2.674,2.146,4.01,3.554,6.69
				c2.621,5.027,4.589,8.65,4.652,8.652c0.138,0.005,1.13-2.538,1.627-4.032c1.221-3.743,1.84-5.614,3.094-9.352
				c1.385-4.217,2.595-8.117,2.877-9.273c0.778-3.193,0.682-4.225-3.13-4.68c-0.897-0.104-1.346-0.154-2.243-0.256
				c-0.676-0.582-0.293-2.105,0.512-2.272c2.989-0.62,6.45,0.205,9.299,0.236c3.224,0.035,6.399-0.737,8.7-0.046
				c0.48,0.145,0.487,1.83-0.195,2.269c-0.72,0.113-1.081,0.172-1.801,0.287c-3.373,0.514-4.617,1.295-5.946,4.443
				c-0.539,1.276-2.122,5.103-3.607,9.311c-2.169,6.188-3.23,9.288-5.307,15.493c-1.636,4.869-2.431,9.546-3.29,10.847
				c-0.28,0.423-2.596,0.734-4.424,0.757c-0.14,0.001-2.107-4.972-4.183-9.021c-3.174-6.25-4.799-9.37-8.123-15.58
				c-1.477-2.812-5.12-9.502-5.12-9.502c-0.097,0.008-0.608,1.581-1.635,5.131c-1.518,5.126-2.261,7.691-3.718,12.826
				c-1.238,4.281-2.18,8.231-2.328,9.405c-0.411,3.255-0.423,4.106,3.197,4.46c0.852,0.091,1.278,0.136,2.129,0.229
				c0.378,0.569,0.363,2.098-0.254,2.283c-2.624,0.787-6.188,0.099-8.855,0.25c-2.948,0.167-5.863,1.111-8.054,0.698
				c-0.517-0.098-0.83-1.763-0.017-2.275c0.638-0.174,0.957-0.262,1.595-0.435c3.195-0.862,4.295-1.776,5.297-4.878
				c0.425-1.315,1.618-5.228,2.827-9.517C284.881,56.761,285.903,53.267,288.004,46.288z"/>
			<path fill="none" stroke="#ED2426" stroke-miterlimit="10" d="M342.808,68.85c-1.181,3.009-1.523,4.883-1.138,6.064
				c0.385,1.183,1.641,1.667,6.448,1.886c6.15,0.279,8.724-1.724,14.914-6.634c0.626-0.496,2.845,0.057,2.832,0.586
				c-0.053,2.146-4.873,9.421-6.068,9.869c-2.809,1.055-10.613-0.815-17.019-1.056c-3.238-0.121-4.857-0.171-8.095-0.252
				c-3.378-0.084-7.549,0.641-10.278,0.017c-0.635-0.146-0.829-2.02,0.161-2.27c0.933-0.121,1.399-0.181,2.333-0.298
				c3.043-0.414,3.602-0.854,5.795-6.844c3.538-9.582,5.365-14.363,9.133-23.896c2.015-5.19,2.148-6.429-1.649-7.067
				c-0.774-0.128-1.162-0.191-1.937-0.317c-0.737-0.41-0.274-2.18,0.584-2.252c3.324-0.279,7.793,0.456,11.393,0.621
				c3.599,0.166,7.77-0.257,10.208,0.35c0.743,0.185,0.632,2.051-0.354,2.251c-0.785,0.083-1.178,0.128-1.962,0.213
				c-3.241,0.332-3.873,0.696-6.296,6.62C348.109,55.382,346.308,59.861,342.808,68.85z"/>
			<path fill="none" stroke="#ED2426" stroke-miterlimit="10" d="M382.382,44.051c6.569-3.818,13.608-4.453,19.034-3.85
				c10.67,1.186,19.769,9.357,17.904,20.88c-1.074,6.634-5.622,13.604-11.518,17.757c-4.05,2.853-11.81,5.701-20.194,4.995
				c-10.301-0.867-19.538-8.061-18.718-19.106C369.495,56.575,374.55,48.604,382.382,44.051z M393.615,45.12
				c-8.211,4.766-13.728,14.324-14.732,23.96c-0.637,6.106,2.133,11.057,8.052,11.679c2.819,0.297,6.462-0.472,10.201-3.552
				c7.254-5.978,11.342-14.324,12.376-22.174c0.992-7.528-2.402-11.137-7.621-11.769C399.059,42.922,396.017,43.726,393.615,45.12z"
				/>
			<path fill="none" stroke="#ED2426" stroke-miterlimit="10" d="M431.592,74.099c-2.144-0.368-2.278-0.454-3.355,0.748
				c-2.332,2.4-3.487,3.606-5.783,6.026c-1.505,1.731-1.723,2.225-1.783,2.609c-0.08,0.513,0.905,1.127,2.139,1.523
				c0.991,0.291,1.484,0.437,2.473,0.731c0.628,0.564,0,2.248-0.727,2.249c-2.838,0.003-6.335-1.213-9.416-1.674
				c-2.45-0.366-5.202-0.361-6.752-0.779c-0.815-0.22-0.729-2.003-0.034-2.364c0.689-0.01,1.036-0.014,1.726-0.021
				c3.589-0.018,4.531-0.474,8.83-4.667c7.683-7.494,15.685-14.888,23.622-22.082c2.815-2.552,5.584-5.843,5.999-6.074
				c1.499-0.838,8.169-1.241,8.244-1.226c0.059,0.012,0.09,0.019,0.149,0.03c0.743,0.15,1.276,0.594,1.132,1.289
				c-2.32,11.204-4.995,22.536-7.325,33.743c-0.919,4.423-1.116,5.522,2.156,6.604c0.655,0.217,0.981,0.326,1.635,0.544
				c0.478,0.499-0.138,2.203-0.678,2.181c-2.064-0.084-6.292-1.509-9.777-2.189c-3.902-0.764-7.48-1.023-9.242-1.542
				c-0.766-0.226-0.449-1.929,0.051-2.301c0.658,0.04,0.988,0.061,1.646,0.102c3.292,0.206,3.797-0.547,4.154-2.064
				c0.719-3.22,1.08-4.831,1.8-8.05c0.311-1.262,0.181-1.354-2.031-1.766C436.907,75.023,435.136,74.707,431.592,74.099z
				 M441.64,72.405c1.721,0.32,1.816,0.206,2.186-1.376c0.76-3.105,1.14-4.656,1.902-7.762c0.431-1.899,1.234-5.381,1.645-6.756
				c-0.059-0.011-0.089-0.021-0.148-0.031c-2.318,2.148-3.469,3.229-5.756,5.396c-3.166,3.036-4.734,4.564-7.838,7.636
				c-1.061,1.001-0.887,1.291,1.123,1.645C437.509,71.642,438.887,71.893,441.64,72.405z"/>
			<path fill="none" stroke="#ED2426" stroke-miterlimit="10" d="M479.347,64.393c2.547-3.926,2.947-4.901,0.494-6.021
				c-0.811-0.38-1.217-0.57-2.029-0.948c-0.545-0.662,0.104-2.063,0.941-2.046c3.564,0.074,9.246,1.585,16.2,3.432
				c8.053,2.139,14.142,4.978,18.125,9.123c3.938,4.099,5.692,9.759,3.834,15.909c-1.746,5.777-6.18,10.711-11.791,13.408
				c-9.377,4.507-20.322,3.751-30.241,1.253c-3.022-0.762-6.003-1.856-9.542-2.671c-3.33-0.768-7.619-0.9-9.971-2.017
				c-0.538-0.255-0.195-2.167,0.808-2.084c0.836,0.047,1.255,0.072,2.092,0.122c3.095,0.21,3.748-0.173,7.116-5.598
				C470.857,77.461,473.65,73.089,479.347,64.393z M475.254,87.838c-1.406,2.131-1.785,3.198-2.042,4.183
				c-0.434,1.662,0.851,3.202,3.907,3.962c3.473,0.864,8.432,1.301,14.872-1.229c8.001-3.144,13.083-10.022,14.77-15.953
				c1.225-4.307,2.161-13.208-10.504-16.561c-3.074-0.813-3.491-0.719-5.127,1.741C485.734,71.863,480.445,79.819,475.254,87.838z"
				/>
		</g>
	</g>
	<text transform="matrix(0 1 -1 0 231.104 440.5352)" fill="#EC2628" font-family="'AGaramondPro-Bold'" font-size="278.7012">]</text>
	
		<text transform="matrix(-0.4172 0.9088 -0.9088 -0.4172 276.2173 105.0225)" fill="#EC2628" font-family="'AGaramondPro-Regular'" font-size="278.7012">~</text>
	
		<text transform="matrix(0.0622 0.9981 -0.9981 0.0622 240.2134 323.0928)" fill="#EC2628" font-family="'AGaramondPro-Regular'" font-size="278.7012">&gt;</text>
	
		<text transform="matrix(-0.4172 0.9088 -0.9088 -0.4172 278.2197 201.6699)" fill="#EC2628" font-family="'AGaramondPro-Regular'" font-size="278.7012">~</text>
</g>
<g id="band_aid">
	<g id="dots">
	</g>
</g>
<g id="connecting_pieces">
</g>
<g id="circling_words">
</g>
</svg>
