<?xml version="1.0" encoding="utf-8"?>
<!-- Generator: Adobe Illustrator 16.0.0, SVG Export Plug-In . SVG Version: 6.00 Build 0)  -->
<!DOCTYPE svg PUBLIC "-//W3C//DTD SVG 1.1//EN" "http://www.w3.org/Graphics/SVG/1.1/DTD/svg11.dtd">
<svg version="1.1" xmlns="http://www.w3.org/2000/svg" xmlns:xlink="http://www.w3.org/1999/xlink" x="0px" y="0px"
	 width="1404.442px" height="608.971px" viewBox="0 0 1404.442 608.971" enable-background="new 0 0 1404.442 608.971"
	 xml:space="preserve">
<g id="background">
</g>
<g id="background_shapes" display="none">
</g>
<g id="Layer_11">
</g>
<g id="graphic_pieces" display="none">
</g>
<g id="background_text">
	<linearGradient id="SVGID_1_" gradientUnits="userSpaceOnUse" x1="813.9883" y1="304.4863" x2="1385.9922" y2="304.4863">
		<stop  offset="0.0208" style="stop-color:#FFF8A3"/>
		<stop  offset="0.0274" style="stop-color:#FFF6A0"/>
		<stop  offset="0.111" style="stop-color:#FFE67B"/>
		<stop  offset="0.1965" style="stop-color:#FFDA5A"/>
		<stop  offset="0.283" style="stop-color:#FFD13C"/>
		<stop  offset="0.371" style="stop-color:#FECB24"/>
		<stop  offset="0.4612" style="stop-color:#FEC812"/>
		<stop  offset="0.5574" style="stop-color:#FDC70C"/>
		<stop  offset="0.8169" style="stop-color:#F3903F"/>
		<stop  offset="0.8876" style="stop-color:#ED683C"/>
		<stop  offset="1" style="stop-color:#E93E3A"/>
	</linearGradient>
	<circle fill="url(#SVGID_1_)" stroke="#EC2628" stroke-width="18" stroke-miterlimit="10" cx="1099.99" cy="304.485" r="286.002"/>
</g>
<g id="discussion_details">
</g>
<g id="questions">
</g>
<g id="sub-thoughts">
</g>
<g id="Layer_14">
	<rect x="30.581" y="40.948" fill="#FFFFFF" width="764.952" height="490.539"/>
	<rect x="49.696" y="81.487" fill="#FFD8A4" width="722.304" height="31.837"/>
	<rect x="47.151" y="209.634" fill="#CBE7F6" width="710.849" height="31.837"/>
	<rect x="48.197" y="246.476" fill="#CBE7F6" width="687.803" height="31.837"/>
	<rect x="48.197" y="288.567" fill="#CBE7F6" width="613.803" height="31.837"/>
	<rect x="49.696" y="129.619" fill="#FFD8A4" width="722.304" height="31.837"/>
	<rect x="49.696" y="372.656" fill="#FFD8A4" width="722.304" height="31.837"/>
	<rect x="49.696" y="417.886" fill="#FFD8A4" width="698.304" height="31.837"/>
	<rect x="49.696" y="459.538" fill="#FFD8A4" width="722.304" height="31.837"/>
</g>
<g id="main_ideas">
	<g>
		<g>
			<path fill="#ED2426" d="M928.148,167.824c4.694-9.799,12.745-15.3,21.616-19.898c7.317-3.793,16.827-4.568,17.127-4.249
				c0.662,0.704,0.531,8.604,0.252,11.905c-0.069,0.815-2.628,1.759-2.962,1.207c-2.867-4.737-6.538-8.872-13.776-5.521
				c-13.397,6.201-17.167,24.053-10.605,36.537c5.409,10.291,12.729,10.271,17.856,7.764c5.751-2.812,7.552-9.558,10.604-16.195
				c0.371-0.808,2.652-1.277,2.862-0.748c1.167,2.942,0.146,11.605-0.568,12.625c-0.952,1.358-5.823,4.422-11.645,7.393
				c-9.993,5.1-23.855,5.776-30.173-5.32C924.12,185.211,924.7,175.023,928.148,167.824z"/>
			<path fill="#ED2426" d="M990.877,171.199c0.006,3.582,0.425,5.651,1.292,6.721c0.868,1.068,2.325,1.053,7.267-0.569
				c6.324-2.074,8.106-5.089,12.694-12.486c0.461-0.744,2.951-0.97,3.13-0.405c0.726,2.287-1.538,11.623-2.58,12.518
				c-2.403,2.063-11.002,3.051-17.521,5.314c-3.295,1.144-4.937,1.739-8.207,2.973c-3.411,1.287-7.28,3.771-10.241,4.293
				c-0.693,0.122-1.71-1.706-0.829-2.385c0.879-0.521,1.321-0.783,2.205-1.298c2.867-1.71,3.221-2.379,2.923-9.442
				c-0.374-9.463-0.512-18.935-0.422-28.404c0.021-6.196-0.32-7.548-4.657-6.593c-0.883,0.196-1.326,0.296-2.208,0.498
				c-0.962-0.106-1.206-2.128-0.309-2.573c3.483-1.729,8.586-2.825,12.541-4.119c3.955-1.295,8.284-3.382,11.188-3.695
				c0.88-0.095,1.46,1.9,0.47,2.491c-0.817,0.39-1.225,0.584-2.039,0.979c-3.372,1.613-3.931,2.254-4.196,9.37
				C990.928,155.146,990.828,160.51,990.877,171.199z"/>
			<path fill="#ED2426" d="M1040.11,167.831c0.529,0.339,0.532,2.309-0.036,2.572c-2.624,1.22-7.714,1.362-11.092,2.143
				c-3.672,0.848-7.833,2.791-10.558,2.845c-0.63,0.013-1.258-2.051-0.138-2.57c0.756-0.35,1.136-0.522,1.896-0.867
				c3.023-1.374,3.477-1.923,4.106-8.959c0.87-9.422,1.969-18.821,3.298-28.189c0.832-6.136,0.703-7.382-3.704-7.091
				c-0.968,0.062-1.452,0.097-2.42,0.165c-0.681-0.291-0.885-2.244,0.03-2.587c3.759-1.409,8.99-1.682,13.056-2.433
				c3.896-0.72,8.705-2.439,11.933-2.229c0.725,0.048,1.018,2.104-0.037,2.557c-0.958,0.292-1.435,0.439-2.39,0.737
				c-3.546,1.077-4.17,1.704-5.364,8.72c-1.611,9.323-3.002,18.686-4.157,28.076c-0.792,6.118-0.499,7.292,3.425,7.168
				C1038.818,167.862,1039.249,167.852,1040.11,167.831z"/>
			<path fill="#ED2426" d="M1057.641,126.582c7.707-7.403,17.013-9.613,26.765-10.692c8.045-0.891,17.081,1.795,17.249,2.206
				c0.368,0.903-2.561,8.212-3.994,11.2c-0.353,0.735-3.042,0.697-3.153,0.061c-0.963-5.478-2.879-10.634-10.694-10.121
				c-14.641,0.961-24.152,16.375-22.569,30.192c1.324,11.56,7.996,14.203,13.568,13.727c6.25-0.534,10.273-6.164,15.44-11.264
				c0.625-0.617,2.89-0.238,2.896,0.333c0.03,3.178-3.975,10.883-4.996,11.574c-1.344,0.911-6.91,2.021-13.28,2.674
				c-11.134,1.143-23.802-3.516-25.623-15.957C1047.897,141.286,1051.974,132.025,1057.641,126.582z"/>
			<path fill="#ED2426" d="M1112.656,127.076c2.225-5.777,2.387-7.017-1.955-7.753c-0.918-0.163-1.379-0.241-2.299-0.398
				c-0.85-0.445-0.411-2.369,0.456-2.517c3.674-0.624,9.022,0.441,13.146,0.647c4.122,0.207,9.083-0.304,12.207,0.592
				c0.773,0.222,0.59,2.292-0.541,2.488c-0.998,0.034-1.497,0.052-2.494,0.093c-3.696,0.155-4.456,0.766-7.239,7.315
				c-1.572,3.661-2.338,5.495-3.843,9.173c-0.551,1.342-0.582,2.062,0.228,2.102c2.428,0.118,5.922-1.551,9.124-3.771
				c4.461-3.052,6.741-4.543,11.391-7.452c0.635-0.441,4.851-3.277,5.595-3.805c0.706-0.5,1.045-0.893,1.079-1.179
				c0.042-0.358-0.355-0.622-1.352-0.955c-1.276-0.292-1.916-0.436-3.195-0.717c-0.622-0.646-0.354-2.336,0.767-2.38
				c3.978-0.154,7.68,1.108,11.353,1.619c4.442,0.617,8.39,0.831,10.441,1.382c0.949,0.255,0.556,2.376-0.239,2.518
				c-1.875,0.334-4.695-0.129-7.937,0.353c-3.865,0.574-7.617,2.146-15.983,7.056c-2.458,1.449-3.674,2.186-6.081,3.676
				c-1.479,0.879-3.227,2.251-3.272,2.824c-0.034,0.431,0.201,1.484,0.596,2.726c2.107,6.635,4.757,13.297,7.049,19.85
				c0.764,2.185,1.828,2.883,3.602,3.389c0.8,0.213,1.2,0.322,1.998,0.54c0.529,0.648-0.052,2.39-0.542,2.471
				c-2.306,0.381-6.929-1.042-10.45-1.376c-3.222-0.306-7.35,0.145-9.988-0.579c-0.732-0.201-0.849-2.146-0.065-2.53
				c0.948-0.113,1.422-0.169,2.372-0.275c1.759-0.164,2.031-0.867,1.815-1.887c-0.291-1.376-1.835-5.619-2.293-6.95
				c-0.844-2.338-1.274-3.505-2.152-5.838c-1.651-4.282-2.241-5.759-4.007-5.843c-1.847-0.088-2.398,1.404-3.708,4.741
				c-1.154,2.983-1.721,4.479-2.831,7.472c-2.184,5.77-2.174,7.12,1.666,7.835c0.783,0.144,1.174,0.217,1.956,0.364
				c0.587,0.457,0.209,2.379-0.403,2.505c-2.882,0.591-7.877-0.467-11.482-0.489c-3.605-0.022-8.089,0.905-10.732,0.327
				c-0.612-0.134-0.741-2.216,0.31-2.53c0.873-0.166,1.309-0.249,2.184-0.409c3.245-0.563,3.81-1.062,6.044-7.761
				C1105.967,144.773,1109.205,135.883,1112.656,127.076z"/>
			<path fill="#ED2426" d="M1230.611,138.781c3.375,1.213,4.931,0.856,6.404,0.367c0.681-0.227,2.725,0.984,2.638,1.237
				c-0.483,1.413-7.307,7.869-9.383,9.771c-0.542,0.497-3.243-0.598-3.195-1.166c0.141-1.689,2.142-5.004,1.343-6.098
				c-1.143-1.563-3.328-2.55-5.459-3.271c-1.443-0.488-2.166-0.729-3.612-1.202c-2.466-0.807-2.554-0.824-3.894,0.866
				c-6.774,8.99-13.339,18.056-19.767,27.297c-3.465,5.082-3.862,6.375-0.244,7.944c1.05,0.453,1.575,0.682,2.621,1.144
				c0.317,0.546-0.586,2.3-1.156,2.287c-3.394-0.076-8.276-2.582-11.658-3.452c-3.528-0.907-8.372-1.019-11.327-2.482
				c-0.569-0.282-0.341-2.36,0.764-2.411c1.192,0.116,1.788,0.177,2.98,0.304c3.298,0.316,3.987-0.104,7.801-6.055
				c6.211-9.418,12.565-18.662,19.133-27.834c1.146-1.547,1.126-1.787-1.614-2.547c-1.362-0.377-2.042-0.563-3.407-0.928
				c-2.33-0.622-4.816-1.114-7.393-0.188c-1.926,0.692-4.639,2.989-7.244,4.495c-0.582,0.336-3.168-0.906-2.852-1.525
				c1.793-3.51,6.761-8.525,8.914-10.296c0.403-0.331,2.266,0.147,2.39,0.506c0.217,0.628,0.394,2.049,6.103,3.558
				C1210,132.049,1220.29,135.25,1230.611,138.781z"/>
			<path fill="#ED2426" d="M1243.751,149.53c8.479-1.828,16.565,0.074,22.396,2.828c10.981,5.185,18.661,17.279,11.909,29.021
				c-3.712,6.456-11.244,11.857-18.964,13.976c-5.303,1.455-14.365,1.619-22.819-1.899c-10.474-4.359-17.837-15.009-13.643-26.236
				C1226.039,158.095,1234.198,151.59,1243.751,149.53z M1255.823,154.634c-11.712,2.241-19.027,10.929-23.854,20.347
				c-2.865,5.59-1.318,12.389,4.646,15.009c2.84,1.249,6.899,1.675,11.905-0.242c9.041-3.462,16.765-10.069,21.221-18.643
				c3.861-7.429,1.414-12.667-4.137-15.334C1262.592,154.322,1258.953,154.035,1255.823,154.634z"/>
		</g>
	</g>
	
		<text transform="matrix(0.9986 0.0536 -0.0536 0.9986 830.4917 353.7412)" fill="none" stroke="#EC2628" stroke-miterlimit="10" font-family="'AGaramondPro-Bold'" font-size="207.6244">$</text>
	
		<text transform="matrix(0.9986 0.0536 -0.0536 0.9986 1191.395 209.6338)" fill="none" stroke="#EC2628" stroke-miterlimit="10" font-family="'AGaramondPro-Bold'" font-size="207.6244">$</text>
	
		<text transform="matrix(0.9986 0.0536 -0.0536 0.9986 946.4985 376.4297)" fill="none" stroke="#EC2628" stroke-miterlimit="10" font-family="'AGaramondPro-Bold'" font-size="247.1717">€</text>
	
		<text transform="matrix(0.9986 0.0536 -0.0536 0.9986 1071.7241 161.5029)" fill="none" stroke="#EC2628" stroke-miterlimit="10" font-family="'AGaramondPro-Bold'" font-size="207.6244">€</text>
	
		<text transform="matrix(0.9986 0.0536 -0.0536 0.9986 921.2085 209.6338)" fill="none" stroke="#EC2628" stroke-miterlimit="10" font-family="'MyriadPro-Regular'" font-size="207.6244">₹</text>
	
		<text transform="matrix(0.9986 0.0536 -0.0536 0.9986 1083.2847 388.5742)" fill="none" stroke="#EC2628" stroke-miterlimit="10" font-family="'MyriadPro-Regular'" font-size="262.8339">₹</text>
	
		<text transform="matrix(0.9986 0.0536 -0.0536 0.9986 1152.3184 538.6172)" fill="none" stroke="#EC2628" stroke-miterlimit="10" font-family="'AGaramondPro-Bold'" font-size="219.8367">£</text>
	
		<text transform="matrix(0.9986 0.0536 -0.0536 0.9986 1191.4097 391.3408)" fill="none" stroke="#EC2628" stroke-miterlimit="10" font-family="'KozGoPr6N-Regular-83pv-RKSJ-H'" font-size="207.6244">￥</text>
	
		<text transform="matrix(0.9986 0.0536 -0.0536 0.9986 876.9292 490.374)" fill="none" stroke="#EC2628" stroke-miterlimit="10" font-family="'AGaramondPro-Bold'" font-size="207.6244">£</text>
	
		<text transform="matrix(0.9986 0.0536 -0.0536 0.9986 963.3989 571.3311)" fill="none" stroke="#EC2628" stroke-miterlimit="10" font-family="'KozGoPr6N-Regular-83pv-RKSJ-H'" font-size="207.6244">￥</text>
	<g>
		<g>
			<path fill="#ED2426" d="M916.057,432.406c0.454-2.172,4.215-6.839,6.629-8.229c0.534-0.308,2.931,1.137,2.854,1.786
				c-0.167,1.405-1.801,4.702-1.457,7.849c0.501,4.587,3.212,8.242,7.479,10.434c4.9,2.517,10.746,1.958,13.183-3.183
				c1.542-3.254,0.697-6.905-2.282-11.711c-0.522-0.844-0.782-1.267-1.298-2.112c-3.141-5.162-4.709-10.624-2.414-14.868
				c4.385-8.107,14.453-9.222,24.123-4.551c5.079,2.453,11.594,8.132,11.418,9.334c-0.112,0.766-4.255,5.124-6.938,7.458
				c-0.658,0.572-2.96-0.784-2.871-1.256c0.594-3.158,2.501-9.928-3.442-12.739c-5.377-2.543-10.335-0.416-11.958,2.798
				c-1.006,1.992-1.245,5.072,2.472,10.626c0.656,0.988,0.985,1.479,1.651,2.465c3.126,4.589,5.764,10.385,3.166,16.178
				c-4.837,10.785-19.203,8.439-27.585,3.857C920.859,442.208,915.533,434.917,916.057,432.406z"/>
			<path fill="#ED2426" d="M1002.085,427.229c-3.268-0.435-3.977-0.146-8.287,5.465c-4.282,5.575-6.471,8.337-10.948,13.804
				c-1.401,1.716-3.522,4.808-4.321,6.864c-2.19,5.638-0.14,10.515,7.314,12.965c9.938,3.268,16.929-3.092,22.154-10.619
				c2.472-3.533,3.69-5.305,6.087-8.873c2.741-4.118,4.958-8.028,5.557-9.201c1.656-3.242,1.771-4.208-1.859-5.837
				c-0.856-0.376-1.284-0.564-2.138-0.946c-0.276-0.747,0.309-2.271,1.007-2.264c2.957,0.035,6.446,1.91,9.264,2.585
				c3.189,0.764,6.486,0.622,8.667,1.729c0.507,0.257,0.273,2.048-0.655,2.367c-0.755,0.017-1.132,0.022-1.889,0.035
				c-3.544,0.042-4.885,0.533-7.072,3.564c-0.904,1.253-3.521,5.011-6.202,9.167c-2.45,3.754-3.695,5.619-6.228,9.336
				c-3.577,5.246-7.199,9.812-13.383,12.085c-4.623,1.698-11.763,1.528-18.189-0.657c-10.517-3.577-17.326-9.782-13.829-18.62
				c0.742-1.874,2.489-4.435,4.291-6.51c5.024-5.759,7.48-8.673,12.282-14.565c3.893-4.771,4.393-6.025,0.921-8.041
				c-0.656-0.373-0.984-0.562-1.638-0.938c-0.568-0.683,0.561-2.238,1.528-2.034c2.907,0.612,6.921,2.826,10.407,4.033
				c3.558,1.232,7.955,1.782,10.196,3.118c0.549,0.327-0.046,2.249-1.089,2.226C1003.255,427.373,1002.865,427.325,1002.085,427.229
				z"/>
			<path fill="#ED2426" d="M1040.087,444.424c2.588-4.498,2.84-5.616,0.306-6.685c-0.929-0.382-1.391-0.574-2.316-0.963
				c-0.566-0.7,0.081-2.281,0.92-2.312c3.598-0.13,8.86,1.009,14.708,1.886c5.924,0.888,10.951,2.053,14.469,4.373
				s5.932,6.157,5.45,10.784c-1.179,11.318-14.755,14.01-24.186,12.526c-0.888-0.14-2.157-0.196-2.591-0.471
				c-0.45-0.284-0.219-1.811,0.309-1.995c5.491-1.92,14.699-5.458,15.588-13.112c0.499-4.292-1.491-7.69-6.343-8.369
				c-2.502-0.35-2.68-0.166-3.664,1.726c-5.235,9.975-10.635,19.788-16.25,29.554c-3.197,5.345-3.49,6.7,0.749,8.036
				c1.03,0.328,1.545,0.49,2.578,0.812c0.452,0.442-0.269,2.278-1,2.312c-3.82,0.179-9.038-1.856-13.131-2.71
				c-4.094-0.853-9.246-1.099-12.214-2.537c-0.665-0.322-0.391-2.465,0.823-2.319c1.012,0.098,1.518,0.146,2.529,0.235
				c3.741,0.362,4.495-0.068,8.373-6.083C1030.37,461.013,1035.335,452.778,1040.087,444.424z"/>
			<path fill="#ED2426" d="M1087.521,449.876c1.919-4.817,2.011-5.961-0.634-6.661c-0.967-0.246-1.45-0.372-2.415-0.626
				c-0.655-0.613-0.237-2.272,0.584-2.421c3.517-0.636,8.866-0.248,14.754-0.202c5.965,0.046,11.091,0.495,14.89,2.3
				c3.799,1.805,6.723,5.262,6.897,9.911c0.424,11.353-12.581,15.938-22.119,15.798c-0.895-0.014-2.154,0.106-2.621-0.104
				c-0.483-0.219-0.468-1.758,0.026-2.015c5.135-2.665,13.733-7.474,13.538-15.177c-0.109-4.319-2.549-7.399-7.43-7.391
				c-2.517,0.004-2.667,0.21-3.372,2.221c-3.766,10.611-7.713,21.089-11.883,31.548c-2.402,5.742-2.5,7.125,1.863,7.85
				c1.061,0.18,1.589,0.268,2.652,0.44c0.507,0.374,0.054,2.296-0.662,2.433c-3.734,0.713-9.161-0.567-13.309-0.833
				c-4.148-0.267-9.256,0.217-12.367-0.783c-0.698-0.225-0.729-2.384,0.485-2.411c1.008-0.047,1.512-0.073,2.518-0.127
				c3.729-0.171,4.413-0.706,7.39-7.208C1080.271,467.667,1084.011,458.816,1087.521,449.876z"/>
			<path fill="#ED2426" d="M1136.098,443.811c5.818-5.516,12.371-7.972,17.782-8.854c11.379-1.856,22.357,4.115,24.872,15.883
				c1.559,7.294-0.383,16.382-5.493,22.939c-3.51,4.505-11.651,10.312-21.884,11.889c-11.76,1.812-25.228-3.752-25.912-16.771
				C1124.969,459.503,1129.235,450.318,1136.098,443.811z M1147.603,442.365c-7.873,8.223-10.131,19.09-10.018,29.446
				c0.069,6.296,4.983,11.644,12.152,10.728c3.414-0.437,7.563-2.332,10.834-6.795c5.795-7.906,7.836-17.958,5.983-27.585
				c-1.591-8.269-6.063-10.918-11.324-10.065C1152.376,438.557,1149.627,440.251,1147.603,442.365z"/>
			<path fill="#ED2426" d="M1193.095,437.796c0.336-5.178,0.013-6.204-2.509-6.104c-1.009,0.04-1.513,0.058-2.521,0.089
				c-0.815-0.378-0.934-2.09-0.197-2.484c3.386-1.812,8.683-3.092,14.263-4.878c5.943-1.901,10.847-2.987,14.85-2.688
				c3.866,0.289,7.815,2.409,9.536,6.763c2.62,6.63-2.521,12.621-7.926,16.078c-1.268,0.812-1.134,1.24-0.692,1.994
				c4.766,8.132,8.655,13.755,11.198,14.748c1.397,0.546,4.142-0.207,5.487-0.195c0.748,0.007,1.112,1.659,0.554,2.178
				c-1.068,0.993-3.862,1.92-7.407,3.176c-2.968,1.052-5.338,1.473-6.875,1.222c-1.938-0.317-4.086-1.537-6.08-4.906
				c-2.211-3.707-3.304-5.566-5.461-9.298c-1.294-2.16-2.446-2.547-4.809-1.836c-1.968,0.593-2.142,0.865-2.29,2.408
				c-0.28,3.833-0.437,5.751-0.784,9.59c-0.597,6.23-0.223,7.417,4.216,6.886c0.904-0.111,1.356-0.169,2.261-0.286
				c0.851,0.125,1.001,2.094,0.283,2.469c-2.929,1.528-8.352,2.148-12.393,3.188c-4.042,1.038-8.756,3.09-12.031,3.104
				c-0.734,0.003-1.435-2.043-0.456-2.409c1.013-0.372,1.518-0.559,2.527-0.938c3.499-1.321,3.985-2.041,4.804-9.148
				C1191.703,456.967,1192.522,447.389,1193.095,437.796z M1205.923,426.672c-2.776,0.915-2.789,1.361-2.863,3.424
				c-0.126,6.537-0.238,9.811-0.554,16.371c-0.094,2.208,0.536,2.341,4.118,1.227c7.396-2.301,10.831-10.203,8.704-16.172
				C1214.072,427.994,1211.255,424.913,1205.923,426.672z"/>
			<path fill="#ED2426" d="M1264.657,397.163c2.765-1.579,3.323-2.945,3.746-4.346c0.189-0.626,2.146-1.37,2.305-1.127
				c0.876,1.343,1.963,10.374,2.171,13.197c0.053,0.724-2.382,2.018-2.781,1.605c-1.206-1.246-2.434-4.861-3.698-5.02
				c-1.802-0.226-3.783,0.644-5.568,1.618c-1.209,0.66-1.815,0.986-3.029,1.633c-2.069,1.103-2.139,1.132-1.832,3.246
				c1.652,11.135,3.085,22.237,4.318,33.426c0.611,6.179,1.094,7.486,5.335,5.977c1.229-0.44,1.843-0.662,3.07-1.114
				c0.666,0.151,1.171,2.062,0.659,2.491c-3.167,2.653-9.155,4.18-12.846,5.845c-3.851,1.737-8.333,4.819-12.271,5.509
				c-0.734,0.129-1.74-1.701-0.72-2.43c1.204-0.648,1.804-0.978,3.002-1.637c3.289-1.85,3.729-2.676,3.27-9.796
				c-0.811-11.253-1.829-22.423-3.072-33.636c-0.22-1.894-0.383-2.043-2.702-0.944c-1.152,0.547-1.729,0.817-2.886,1.353
				c-1.975,0.913-3.983,1.971-5.276,4.192c-0.968,1.662-1.589,5.028-2.736,7.752c-0.25,0.593-2.934,1.022-3.036,0.322
				c-0.572-3.913,0.19-10.611,0.708-13.333c0.092-0.482,1.637-1.123,1.93-0.916c0.568,0.4,1.498,1.512,6.249-0.67
				C1247.72,406.347,1256.293,401.938,1264.657,397.163z"/>
		</g>
	</g>
	<rect x="49.696" y="81.487" fill="none" width="730.304" height="450"/>
	<text transform="matrix(1 0 0 1 49.6963 107.9443)"><tspan x="0" y="0" font-family="'AGaramondPro-Italic'" font-size="37">Okay Mag and the All About Love initiative are en</tspan><tspan x="699.178" y="0" font-family="'AGaramondPro-Italic'" font-size="37">-</tspan><tspan x="0" y="44.399" font-family="'AGaramondPro-Italic'" font-size="37">tirely volunteer-run involving countless hours of work</tspan><tspan x="0" y="88.8" font-family="'AGaramondPro-Italic'" font-size="37"> </tspan><tspan x="0" y="126" font-family="'AGaramondPro-Italic'" font-size="31">(creating graphics, doing outreach, planning and leading con</tspan><tspan x="690.019" y="126" font-family="'AGaramondPro-Italic'" font-size="31">-</tspan><tspan x="0" y="163.199" font-family="'AGaramondPro-Italic'" font-size="31">versations, following up, investing loads of emotional energy, </tspan><tspan x="0" y="204" font-family="'AGaramondPro-Italic'" font-size="31">and most recently, designing and creating this website)</tspan><tspan x="615.742" y="204" font-family="'AGaramondPro-Italic'" font-size="34"> </tspan><tspan x="0" y="289.199" font-family="'AGaramondPro-Italic'" font-size="37">We are committed to making our to our materials </tspan><tspan x="0" y="333.6" font-family="'AGaramondPro-Italic'" font-size="37">and efforts free and accessible. We deeply appreciate </tspan><tspan x="0" y="378" font-family="'AGaramondPro-Italic'" font-size="37">donations to support this project and our future work.</tspan></text>
</g>
<g id="band_aid">
	<g id="dots">
	</g>
</g>
<g id="connecting_pieces">
</g>
<g id="circling_words">
</g>
</svg>
